<?xml version="1.0" standalone="no"?>
<!-- Generator: Adobe Fireworks 10, Export SVG Extension by Aaron Beall (http://fireworks.abeall.com) . Version: 0.6.1  -->
<!DOCTYPE svg PUBLIC "-//W3C//DTD SVG 1.1//EN" "http://www.w3.org/Graphics/SVG/1.1/DTD/svg11.dtd">
<svg id="Untitled-P%E1gina%201" viewBox="0 0 19 16" style="background-color:#ffffff00" version="1.1"
	xmlns="http://www.w3.org/2000/svg" xmlns:xlink="http://www.w3.org/1999/xlink" xml:space="preserve"
	x="0px" y="0px" width="19px" height="16px"
>
	<path id="2889731" d="M 18.9952 8.0537 C 18.9408 8.0977 18.8763 8.1367 18.8269 8.1855 C 16.4072 10.5732 13.9877 12.9561 11.5732 15.3438 C 11.5188 15.3975 11.4744 15.4512 11.4298 15.5 C 10.9844 15.0508 10.554 14.6163 10.1332 14.1914 C 11.8551 12.4922 13.6117 10.7588 15.3682 9.0254 C 15.3584 9.0059 15.3485 8.9863 15.3385 8.9669 C 15.2891 8.962 15.2397 8.9521 15.1901 8.9521 C 10.168 8.9521 5.1459 8.9521 0.1285 8.9521 C 0.0841 8.9521 0.0446 8.962 0 8.962 C 0 8.3272 0 7.6924 0 7.0577 C 0.0741 7.0625 15.2594 7.0674 15.3584 7.0674 C 13.582 5.3145 11.8256 3.581 10.0839 1.8623 C 10.5441 1.4082 10.9795 0.9785 11.4644 0.5 C 11.489 0.5391 11.5137 0.6123 11.5634 0.666 C 13.9829 3.0585 16.4072 5.4511 18.8319 7.8389 C 18.8812 7.8877 18.9456 7.9268 19 7.9708 C 18.9952 8.0049 18.9952 8.0292 18.9952 8.0537 L 18.9952 8.0537 Z" fill="#ffffff"/>
</svg>