<?xml version="1.0" standalone="no"?>
<!-- Generator: Adobe Fireworks 10, Export SVG Extension by Aaron Beall (http://fireworks.abeall.com) . Version: 0.6.1  -->
<!DOCTYPE svg PUBLIC "-//W3C//DTD SVG 1.1//EN" "http://www.w3.org/Graphics/SVG/1.1/DTD/svg11.dtd">
<svg id="Untitled-P%E1gina%201" viewBox="0 0 28 22" style="background-color:#ffffff00" version="1.1"
	xmlns="http://www.w3.org/2000/svg" xmlns:xlink="http://www.w3.org/1999/xlink" xml:space="preserve"
	x="0px" y="0px" width="28px" height="22px"
>
	<path id="2889731" d="M 0.4619 10.9225 C 0.5396 10.859 0.6313 10.8026 0.7019 10.7322 C 4.1519 7.2847 7.6016 3.8442 11.0439 0.3967 C 11.1216 0.3191 11.1851 0.2416 11.2485 0.1711 C 11.8835 0.8197 12.4973 1.4471 13.0972 2.0605 C 10.6421 4.5139 8.1377 7.0167 5.6333 9.5195 C 5.6472 9.5476 5.6614 9.5759 5.6755 9.604 C 5.7461 9.6111 5.8164 9.6252 5.8872 9.6252 C 13.0476 9.6252 20.208 9.6252 27.3616 9.6252 C 27.425 9.6252 27.4814 9.6111 27.5449 9.6111 C 27.5449 10.5276 27.5449 11.4441 27.5449 12.3606 C 27.4392 12.3536 5.7883 12.3466 5.6472 12.3466 C 8.1799 14.8776 10.6843 17.3804 13.1675 19.8619 C 12.5115 20.5176 11.8906 21.1379 11.1992 21.8289 C 11.1641 21.7725 11.1289 21.6667 11.0581 21.5892 C 7.6084 18.1348 4.1519 14.6802 0.6948 11.2327 C 0.6245 11.1621 0.5327 11.1057 0.4551 11.0422 C 0.4619 10.9929 0.4619 10.9578 0.4619 10.9225 L 0.4619 10.9225 Z" fill="#ffffff"/>
</svg>