<?xml version="1.0" standalone="no"?>
<!-- Generator: Adobe Fireworks 10, Export SVG Extension by Aaron Beall (http://fireworks.abeall.com) . Version: 0.6.1  -->
<!DOCTYPE svg PUBLIC "-//W3C//DTD SVG 1.1//EN" "http://www.w3.org/Graphics/SVG/1.1/DTD/svg11.dtd">
<svg id="Untitled-P%E1gina%201" viewBox="0 0 26 26" style="background-color:#ffffff00" version="1.1"
	xmlns="http://www.w3.org/2000/svg" xmlns:xlink="http://www.w3.org/1999/xlink" xml:space="preserve"
	x="0px" y="0px" width="26px" height="26px"
>
	<path id="ico_instagram" d="M 7.6346 13.002 C 7.6346 9.8562 10.165 7.2974 13.2749 7.2974 C 16.3853 7.2974 18.9158 9.8562 18.9158 13.002 C 18.9158 16.145 16.3853 18.7024 13.2749 18.7024 C 10.165 18.7024 7.6346 16.145 7.6346 13.002 L 7.6346 13.002 ZM 13.2749 20.5244 C 17.3813 20.5244 20.7222 17.1499 20.7222 13.002 C 20.7222 8.8513 17.3813 5.4749 13.2749 5.4749 C 9.1691 5.4749 5.8285 8.8513 5.8285 13.002 C 5.8285 17.1499 9.1691 20.5244 13.2749 20.5244 L 13.2749 20.5244 ZM 20.8228 4.6167 C 20.1719 4.6167 19.6473 5.1521 19.6473 5.8057 C 19.6473 6.4636 20.1719 6.9922 20.8228 6.9922 C 21.4694 6.9922 21.9998 6.4636 21.9998 5.8057 C 21.9998 5.1521 21.4694 4.6167 20.8228 4.6167 L 20.8228 4.6167 ZM 5.8486 2.364 L 20.702 2.364 C 22.4722 2.364 23.913 3.8198 23.913 5.6091 L 23.913 20.3906 C 23.913 22.1802 22.4722 23.6355 20.702 23.6355 L 5.8486 23.6355 C 4.0784 23.6355 2.6375 22.1802 2.6375 20.3906 L 2.6375 5.6091 C 2.6375 3.8198 4.0784 2.364 5.8486 2.364 L 5.8486 2.364 ZM 20.702 25.5 C 23.4895 25.5 25.7576 23.208 25.7576 20.3906 L 25.7576 5.6091 C 25.7576 2.7917 23.4895 0.5 20.702 0.5 L 5.8486 0.5 C 3.061 0.5 0.7931 2.7917 0.7931 5.6091 L 0.7931 20.3906 C 0.7931 23.208 3.061 25.5 5.8486 25.5 L 20.702 25.5 L 20.702 25.5 Z" fill="#999999"/>
</svg>