<?xml version="1.0" standalone="no"?>
<!-- Generator: Adobe Fireworks 10, Export SVG Extension by Aaron Beall (http://fireworks.abeall.com) . Version: 0.6.1  -->
<!DOCTYPE svg PUBLIC "-//W3C//DTD SVG 1.1//EN" "http://www.w3.org/Graphics/SVG/1.1/DTD/svg11.dtd">
<svg id="Untitled-P%E1gina%201" viewBox="0 0 26 26" style="background-color:#ffffff00" version="1.1"
	xmlns="http://www.w3.org/2000/svg" xmlns:xlink="http://www.w3.org/1999/xlink" xml:space="preserve"
	x="0px" y="0px" width="26px" height="26px"
>
	<path id="ico_facebook" d="M 14.5911 7.9775 L 14.5911 5.9841 C 14.5911 5.0134 15.2322 4.7864 15.6813 4.7864 C 16.1316 4.7864 18.45 4.7864 18.45 4.7864 L 18.45 0.5171 L 14.6379 0.5 C 10.4067 0.5 9.4458 3.6855 9.4458 5.7253 L 9.4458 7.9775 L 7 7.9775 L 7 12.9646 L 9.4673 12.9646 C 9.4673 18.6152 9.4673 25.4297 9.4673 25.4297 L 14.4006 25.4297 C 14.4006 25.4297 14.4006 18.5461 14.4006 12.9646 L 18.062 12.9646 L 18.5123 7.9775 L 14.5911 7.9775 L 14.5911 7.9775 Z" fill="#999999"/>
</svg>