<?xml version="1.0" standalone="no"?>
<!-- Generator: Adobe Fireworks 10, Export SVG Extension by Aaron Beall (http://fireworks.abeall.com) . Version: 0.6.1  -->
<!DOCTYPE svg PUBLIC "-//W3C//DTD SVG 1.1//EN" "http://www.w3.org/Graphics/SVG/1.1/DTD/svg11.dtd">
<svg id="Untitled-P%E1gina%201" viewBox="0 0 32 24" style="background-color:#ffffff00" version="1.1"
	xmlns="http://www.w3.org/2000/svg" xmlns:xlink="http://www.w3.org/1999/xlink" xml:space="preserve"
	x="0px" y="0px" width="32px" height="24px"
>
	<path id="ico_youtube" d="M 24.2931 23.646 C 28.5496 23.646 32 20.1243 32 15.7805 L 32 8.0676 C 32 3.7236 28.5496 0.2019 24.2931 0.2019 L 8.3848 0.2019 C 4.1285 0.2019 0.6783 3.7236 0.6783 8.0676 L 0.6783 15.7805 C 0.6783 20.1243 4.1285 23.646 8.3848 23.646 L 24.2931 23.646 L 24.2931 23.646 ZM 22.7042 11.9946 L 12.2443 17.7622 C 11.8949 17.9546 11.4706 17.6963 11.4706 17.2913 L 11.4658 5.7104 C 11.4658 5.3049 11.8918 5.0461 12.2415 5.2402 L 22.7056 11.054 C 23.0713 11.2571 23.0703 11.793 22.7042 11.9946 L 22.7042 11.9946 Z" fill="#999999"/>
</svg>