<?xml version="1.0" standalone="no"?>
<!-- Generator: Adobe Fireworks 10, Export SVG Extension by Aaron Beall (http://fireworks.abeall.com) . Version: 0.6.1  -->
<!DOCTYPE svg PUBLIC "-//W3C//DTD SVG 1.1//EN" "http://www.w3.org/Graphics/SVG/1.1/DTD/svg11.dtd">
<svg id="Untitled-P%E1gina%201" viewBox="0 0 35 36" style="background-color:#ffffff00" version="1.1"
	xmlns="http://www.w3.org/2000/svg" xmlns:xlink="http://www.w3.org/1999/xlink" xml:space="preserve"
	x="0px" y="0px" width="35px" height="36px"
>
	<path id="455705" d="M 26.5031 24.8772 C 26.5024 24.8779 26.5016 24.8789 26.5008 24.8796 L 26.5008 24.8738 L 25.6141 25.7546 C 24.4674 26.9158 22.7973 27.3936 21.21 27.0146 C 19.6107 26.5864 18.0903 25.9053 16.7066 24.9963 C 15.4211 24.1748 14.2297 23.2144 13.1541 22.1321 C 12.1645 21.1497 11.2754 20.071 10.4999 18.9121 C 9.6517 17.665 8.9804 16.3066 8.5049 14.8755 C 7.9599 13.1941 8.4116 11.3491 9.6716 10.1096 L 10.71 9.0713 C 10.9987 8.7813 11.4677 8.7803 11.7576 9.0691 C 11.7584 9.0698 11.7592 9.0706 11.7599 9.0713 L 15.0383 12.3496 C 15.3282 12.6384 15.3293 13.1074 15.0406 13.3972 C 15.0399 13.3979 15.0391 13.3989 15.0383 13.3997 L 13.1133 15.3247 C 12.5609 15.8708 12.4915 16.739 12.95 17.3662 C 13.6462 18.3218 14.4167 19.2209 15.2542 20.0554 C 16.1879 20.9932 17.2029 21.8464 18.2875 22.6047 C 18.9141 23.0417 19.7637 22.968 20.3057 22.4297 L 22.1666 20.5398 C 22.4553 20.2498 22.9243 20.2488 23.2142 20.5374 C 23.215 20.5381 23.2158 20.5388 23.2166 20.5398 L 26.5007 23.8296 C 26.7908 24.1184 26.7918 24.5874 26.5031 24.8772 L 26.5031 24.8772 ZM 29.8725 5.6238 C 23.0373 -1.2095 11.9569 -1.2078 5.1238 5.6274 C -1.7094 12.4629 -1.7077 23.5432 5.1275 30.3762 C 11.9628 37.2095 23.0432 37.2078 29.8763 30.3726 C 33.1579 27.0898 35.001 22.6379 35 17.9963 C 34.999 13.3552 33.1547 8.9048 29.8725 5.6238 L 29.8725 5.6238 Z" fill="#000000"/>
</svg>