<?xml version="1.0" standalone="no"?>
<!-- Generator: Adobe Fireworks 10, Export SVG Extension by Aaron Beall (http://fireworks.abeall.com) . Version: 0.6.1  -->
<!DOCTYPE svg PUBLIC "-//W3C//DTD SVG 1.1//EN" "http://www.w3.org/Graphics/SVG/1.1/DTD/svg11.dtd">
<svg id="Untitled-P%E1gina%201" viewBox="0 0 55 55" style="background-color:#ffffff00" version="1.1"
	xmlns="http://www.w3.org/2000/svg" xmlns:xlink="http://www.w3.org/1999/xlink" xml:space="preserve"
	x="0px" y="0px" width="55px" height="55px"
>
	<g id="whatsapp">
		<path d="M 1.1722 55 C 0.8593 55 0.5572 54.8818 0.3414 54.6563 C 0.0501 54.3555 -0.0686 53.9258 0.0393 53.5283 L 3.6321 40.4766 C 1.388 36.4375 0.2119 31.8828 0.2119 27.2637 C 0.2227 12.2246 12.5117 0 27.606 0 C 34.9319 0 41.8047 2.8467 46.9836 7.9922 C 52.1516 13.1484 55 19.9912 55 27.2852 C 54.9892 42.3135 42.711 54.5488 27.606 54.5488 L 27.5952 54.5488 C 23.1824 54.5488 18.8127 53.4746 14.9177 51.4551 L 1.4743 54.957 C 1.3664 54.9893 1.2693 55 1.1722 55 L 1.1722 55 Z" fill="#e5e5e5"/>
		<path d="M 15.7161 45.4824 L 16.5146 45.9551 C 19.8592 47.9316 23.6894 48.9736 27.606 48.9736 L 27.6168 48.9736 C 39.6252 48.9736 49.4004 39.2412 49.4004 27.2852 C 49.4004 21.4951 47.1346 16.0381 43.0239 11.9453 C 38.9024 7.8418 33.4322 5.5752 27.6168 5.5752 C 15.5975 5.5752 5.8224 15.3076 5.8224 27.2637 C 5.8224 31.3564 6.9768 35.3525 9.1563 38.8008 L 9.6741 39.6172 L 7.4731 47.6201 L 15.7161 45.4824 L 15.7161 45.4824 ZM 1.1722 53.8291 L 4.8945 40.3047 C 2.5964 36.3516 1.3987 31.8613 1.3987 27.2637 C 1.3987 12.8799 13.1591 1.1709 27.606 1.1709 C 34.619 1.1709 41.2005 3.8887 46.1528 8.8193 C 51.1051 13.75 53.824 20.3027 53.824 27.2852 C 53.8132 41.6689 42.0528 53.3779 27.606 53.3779 L 27.606 53.3779 L 27.5952 53.3779 C 23.2039 53.3779 18.899 52.2822 15.0688 50.1982 L 1.1722 53.8291 L 1.1722 53.8291 Z" fill="#ffffff"/>
		<path d="M 2.0785 52.916 L 5.6713 39.8643 C 3.4595 36.04 2.2943 31.7109 2.2943 27.2744 C 2.305 13.3848 13.6554 2.084 27.606 2.084 C 34.3816 2.084 40.7258 4.7051 45.5054 9.4746 C 50.2851 14.2334 52.9177 20.5605 52.9069 27.2959 C 52.8961 41.1855 41.5457 52.4863 27.5952 52.4863 L 27.5952 52.4863 L 27.5844 52.4863 C 23.3442 52.4863 19.1903 51.4229 15.4896 49.4248 L 2.0785 52.916 L 2.0785 52.916 Z" fill="#64b161"/>
		<g>
			<path d="M 15.7161 45.4824 L 16.5146 45.9551 C 19.8592 47.9316 23.6894 48.9736 27.606 48.9736 L 27.6168 48.9736 C 39.6252 48.9736 49.4004 39.2412 49.4004 27.2852 C 49.4004 21.4951 47.1346 16.0381 43.0239 11.9453 C 38.9024 7.8418 33.4322 5.5752 27.6168 5.5752 C 15.5975 5.5752 5.8224 15.3076 5.8224 27.2637 C 5.8224 31.3564 6.9768 35.3525 9.1563 38.8008 L 9.6741 39.6172 L 7.4731 47.6201 L 15.7161 45.4824 L 15.7161 45.4824 ZM 1.1722 53.8291 L 4.8945 40.3047 C 2.5964 36.3516 1.3987 31.8613 1.3987 27.2637 C 1.3987 12.8799 13.1591 1.1709 27.606 1.1709 C 34.619 1.1709 41.2005 3.8887 46.1528 8.8193 C 51.1051 13.75 53.824 20.3027 53.824 27.2852 C 53.8132 41.6689 42.0528 53.3779 27.606 53.3779 L 27.606 53.3779 L 27.5952 53.3779 C 23.2039 53.3779 18.899 52.2822 15.0688 50.1982 L 1.1722 53.8291 L 1.1722 53.8291 Z" fill="#ffffff"/>
			<path d="M 21.0569 16.3496 C 20.5713 15.2646 20.0535 15.2432 19.5787 15.2217 C 19.2011 15.2002 18.7587 15.2109 18.3272 15.2109 C 17.8956 15.2109 17.1835 15.3721 16.5793 16.0273 C 15.9751 16.6826 14.2812 18.2617 14.2812 21.4629 C 14.2812 24.6748 16.6332 27.7686 16.9569 28.209 C 17.2806 28.6494 21.4884 35.4385 28.1454 38.0488 C 33.6803 40.2188 34.8024 39.7891 36.0108 39.6816 C 37.2192 39.5742 39.8842 38.1025 40.4344 36.5771 C 40.9847 35.0518 40.9847 33.752 40.8121 33.4727 C 40.6502 33.2041 40.2079 33.043 39.5605 32.71 C 38.9132 32.377 35.6871 30.8086 35.083 30.583 C 34.4788 30.3682 34.0472 30.2607 33.6048 30.9053 C 33.1625 31.5605 31.9109 33.0215 31.5333 33.4619 C 31.1556 33.9023 30.7672 33.9561 30.1091 33.623 C 29.4509 33.3008 27.347 32.6133 24.8439 30.3896 C 22.9018 28.6602 21.5855 26.5225 21.1971 25.8779 C 20.8195 25.2227 21.1863 24.9004 21.4884 24.5459 C 22.0171 23.9014 22.9018 22.752 23.1284 22.3115 C 23.3442 21.8711 23.2363 21.4951 23.0745 21.1729 C 22.9126 20.8721 21.6395 17.6494 21.0569 16.3496 L 21.0569 16.3496 Z" fill="#ffffff"/>
		</g>
	</g>
</svg>