<?xml version="1.0" standalone="no"?>
<!-- Generator: Adobe Fireworks 10, Export SVG Extension by Aaron Beall (http://fireworks.abeall.com) . Version: 0.6.1  -->
<!DOCTYPE svg PUBLIC "-//W3C//DTD SVG 1.1//EN" "http://www.w3.org/Graphics/SVG/1.1/DTD/svg11.dtd">
<svg id="Untitled-P%E1gina%201" viewBox="0 0 150 150" style="background-color:#ffffff00" version="1.1"
	xmlns="http://www.w3.org/2000/svg" xmlns:xlink="http://www.w3.org/1999/xlink" xml:space="preserve"
	x="0px" y="0px" width="150px" height="150px"
>
	<g id="992686">
		<path d="M 16.4139 131.2166 C 16.8898 131.1067 17.2193 131.0701 17.5488 130.9969 C 23.2231 129.4592 28.9342 127.9215 34.6086 126.3472 C 36.8783 125.7248 38.9285 125.9445 40.9053 127.2259 C 41.4911 127.592 42.0768 127.9581 42.6259 128.3242 C 63.4198 141.175 90.9497 140.5526 110.7186 126.2007 C 131.0732 111.373 139.8594 91.1267 136.7476 66.0842 C 135.1733 53.3067 129.7552 42.0669 120.9325 32.6211 C 109.6204 20.5026 95.5991 13.8392 79.0519 12.6677 C 69.021 11.972 59.3196 13.583 50.0576 17.6469 C 41.7107 21.308 34.4622 26.5069 28.4216 33.3167 C 18.7935 44.1538 13.5218 56.8581 12.6432 71.3563 C 12.1673 79.3011 13.412 86.9896 15.6818 94.6048 C 18.5739 104.4167 19.306 114.4484 17.622 124.5532 C 17.2925 126.7133 16.8532 128.91 16.4139 131.2166 L 16.4139 131.2166 ZM 150 70.8438 C 150 73.5897 150 76.2989 150 79.0448 C 149.9268 79.5208 149.817 79.9967 149.7438 80.4727 C 149.1946 84.2437 148.975 88.0879 148.0231 91.7491 C 141.4701 117.78 125.6917 135.8297 100.5413 145.4219 C 89.0827 149.7787 77.1116 150.9137 64.9574 149.3028 C 55.0364 147.9847 45.7377 144.6897 37.098 139.6739 C 36.439 139.3078 35.4506 139.1979 34.6818 139.381 C 32.5219 139.8203 30.4352 140.4793 28.3118 141.0651 C 21.649 142.8957 14.9861 144.7629 8.2867 146.4836 C 4.2964 147.5088 0.8551 145.4951 0.2693 141.6143 C 0.0497 140.1498 0.489 138.3925 1.0748 137.0012 C 3.9303 130.3013 5.6143 123.345 5.9072 116.0227 C 6.2 109.1396 5.0286 102.5129 3.0883 95.996 C -0.1333 85.0125 -0.8655 73.8459 1.0381 62.5329 C 3.5642 47.5953 10.0439 34.5615 20.4043 23.5414 C 32.3022 10.9469 46.8359 3.295 64.0422 0.8421 C 66.2021 0.5492 68.3987 0.2929 70.5586 0 C 73.5971 0 76.599 0 79.6376 0 C 80.0037 0.0732 80.3698 0.2197 80.7725 0.2197 C 92.2311 1.0984 102.9941 4.3568 112.8419 10.2879 C 132.5741 22.1867 144.5819 39.5407 148.7553 62.2034 C 149.3411 65.0591 149.5973 67.9514 150 70.8438 L 150 70.8438 Z" fill="#f2ae51"/>
		<path d="M 68.838 61.8739 C 68.838 55.5767 68.7648 49.2794 68.8745 43.0188 C 68.9478 38.6986 73.0114 35.8429 77.0017 37.1976 C 79.4911 38.0396 80.9189 39.8336 81.2118 42.4697 C 81.285 43.0554 81.285 43.6412 81.285 44.227 C 81.285 55.9794 81.3216 67.7318 81.2484 79.4841 C 81.2484 80.7289 81.1019 82.0469 80.6626 83.1819 C 79.5643 85.8546 76.7089 87.2092 73.8168 86.66 C 71.1077 86.1475 68.9478 83.7677 68.9111 80.8754 C 68.8013 74.5416 68.838 68.2077 68.838 61.8739 L 68.838 61.8739 L 68.838 61.8739 Z" fill="#666666"/>
		<path d="M 68.838 106.2473 C 68.8013 102.8424 71.5104 100.0233 74.8418 99.9501 C 78.3563 99.8769 81.2118 102.696 81.2118 106.2107 C 81.2118 109.579 78.4661 112.3615 75.1346 112.4347 C 71.7667 112.4713 68.8745 109.6522 68.838 106.2473 L 68.838 106.2473 Z" fill="#666666"/>
	</g>
</svg>