<?xml version="1.0" standalone="no"?>
<!-- Generator: Adobe Fireworks 10, Export SVG Extension by Aaron Beall (http://fireworks.abeall.com) . Version: 0.6.1  -->
<!DOCTYPE svg PUBLIC "-//W3C//DTD SVG 1.1//EN" "http://www.w3.org/Graphics/SVG/1.1/DTD/svg11.dtd">
<svg id="Untitled-P%E1gina%201" viewBox="0 0 20 20" style="background-color:#ffffff00" version="1.1"
	xmlns="http://www.w3.org/2000/svg" xmlns:xlink="http://www.w3.org/1999/xlink" xml:space="preserve"
	x="0px" y="0px" width="20px" height="20px"
>
	<g>
		<path id="st0" d="M 19.3766 20 C 19.6935 19.9015 19.9013 19.694 20 19.3776 C 20 19.5851 20 19.7926 20 20 C 19.7922 20 19.5844 20 19.3766 20 L 19.3766 20 Z" fill="#bbbbbb"/>
		<path d="M 1.5585 7.9471 C 1.5481 11.4738 4.4052 14.3314 7.9376 14.3418 C 11.465 14.347 14.3325 11.4945 14.3376 7.9679 C 14.3429 4.4517 11.4909 1.594 7.9689 1.5836 C 4.426 1.5785 1.5636 4.4205 1.5585 7.9471 L 1.5585 7.9471 ZM 8.4935 0.033 C 8.8935 0.1005 9.2987 0.1471 9.6987 0.2301 C 12.826 0.899 15.2987 3.5233 15.787 6.692 C 16.1351 8.9845 15.6 11.0485 14.187 12.8844 C 14.1663 12.9104 14.1454 12.9364 14.1299 12.9623 C 14.1246 12.9727 14.1195 12.9882 14.0935 13.0453 C 14.1351 13.0763 14.2026 13.1075 14.2494 13.1542 C 16.0208 14.9227 17.7974 16.6912 19.5636 18.4648 C 19.7195 18.6205 19.8234 18.8279 19.9481 19.0145 C 19.9481 19.1183 19.9481 19.222 19.9481 19.3258 C 19.8494 19.6422 19.6416 19.8496 19.3247 19.9481 C 19.2208 19.9481 19.1169 19.9481 19.013 19.9481 C 18.8312 19.8185 18.6234 19.7147 18.4675 19.5643 C 16.6909 17.801 14.9195 16.0326 13.1481 14.2589 C 13.0961 14.2069 13.0649 14.1447 13.0234 14.0825 C 13.0182 14.1084 13.0182 14.1395 13.013 14.1654 C 12.4208 14.5077 11.8494 14.9071 11.2312 15.182 C 6.587 17.2721 1.278 14.5856 0.1922 9.6742 C 0.1091 9.2904 0.0624 8.8962 0 8.5072 C 0 8.1442 0 7.7811 0 7.4181 C 0.0104 7.3663 0.026 7.3197 0.0311 7.2677 C 0.1091 6.8165 0.1454 6.3497 0.2753 5.9142 C 1.1741 2.875 3.1688 0.9717 6.2545 0.2145 C 6.6285 0.1212 7.0182 0.0848 7.4026 0.0226 C 7.839 -0.0138 8.1039 -0.0033 8.4935 0.033 L 8.4935 0.033 Z" fill="#bbbbbb"/>
		<path d="M 8.722 7.1848 C 9.7143 7.1848 10.6702 7.1848 11.6312 7.1848 C 11.7299 7.1848 11.8286 7.1848 11.9221 7.2054 C 12.3116 7.2885 12.5767 7.6515 12.535 8.0353 C 12.4935 8.4347 12.1714 8.7406 11.761 8.7406 C 10.826 8.7458 9.8909 8.7406 8.9558 8.7406 C 8.8831 8.7406 8.8156 8.7406 8.722 8.7406 C 8.722 8.8236 8.722 8.891 8.722 8.9585 C 8.722 9.892 8.722 10.8256 8.722 11.759 C 8.722 12.0858 8.5714 12.3347 8.2701 12.4747 C 7.9792 12.6149 7.6987 12.5734 7.4493 12.371 C 7.2468 12.2103 7.1636 11.9977 7.1636 11.7384 C 7.1636 10.8204 7.1636 9.8972 7.1636 8.9792 C 7.1636 8.9066 7.1636 8.8392 7.1636 8.7406 C 7.0857 8.7406 7.0182 8.7406 6.9454 8.7406 C 6.0052 8.7406 5.0649 8.7458 4.1246 8.7406 C 3.7143 8.7406 3.387 8.4347 3.3506 8.0405 C 3.3143 7.6515 3.5688 7.2937 3.9584 7.2107 C 4.0468 7.1901 4.1403 7.1901 4.2286 7.1901 C 5.1324 7.1901 6.0311 7.1901 6.9351 7.1901 C 7.0026 7.1901 7.0753 7.1901 7.1636 7.1901 C 7.1636 7.1018 7.1636 7.0292 7.1636 6.9618 C 7.1636 6.0231 7.1584 5.0844 7.1636 4.1456 C 7.1636 3.7618 7.4442 3.4507 7.8234 3.3885 C 8.1766 3.3314 8.5403 3.5337 8.6649 3.876 C 8.7065 3.9901 8.722 4.1146 8.722 4.239 C 8.7273 5.1466 8.722 6.0542 8.722 6.9618 C 8.722 7.024 8.722 7.0914 8.722 7.1848 L 8.722 7.1848 Z" fill="#bbbbbb"/>
	</g>
</svg>