<?xml version="1.0" standalone="no"?>
<!-- Generator: Adobe Fireworks 10, Export SVG Extension by Aaron Beall (http://fireworks.abeall.com) . Version: 0.6.1  -->
<!DOCTYPE svg PUBLIC "-//W3C//DTD SVG 1.1//EN" "http://www.w3.org/Graphics/SVG/1.1/DTD/svg11.dtd">
<svg id="Untitled-P%E1gina%201" viewBox="0 0 28 36" style="background-color:#ffffff00" version="1.1"
	xmlns="http://www.w3.org/2000/svg" xmlns:xlink="http://www.w3.org/1999/xlink" xml:space="preserve"
	x="0px" y="0px" width="28px" height="36px"
>
	<g>
		<path d="M 26.8005 8.0728 C 26.8005 5.9248 26.8005 3.8047 26.8005 1.6841 C 25.8735 1.574 25.6827 1.7666 25.6827 2.6479 C 25.6827 3.8047 25.6827 4.9609 25.6827 6.1177 C 25.6827 6.5308 25.6827 6.9712 25.6827 7.3843 C 25.71 7.8525 25.9008 8.0728 26.3643 8.0728 C 26.5006 8.0728 26.6369 8.0728 26.8005 8.0728 L 26.8005 8.0728 ZM 7.1992 12.1206 C 9.5164 12.1206 11.8065 12.1206 14.1237 12.1206 C 14.1237 11.5977 14.1237 11.1021 14.1237 10.6062 C 14.1237 10.0005 13.9329 9.8076 13.3331 9.8076 C 12.4608 9.8076 11.5884 9.8076 10.6887 9.8076 C 9.7618 9.8076 8.8349 9.8076 7.908 9.8076 C 7.4445 9.8076 7.2264 9.9729 7.1992 10.3584 C 7.1992 10.9365 7.1992 11.5149 7.1992 12.1206 L 7.1992 12.1206 ZM 19.2762 22.6125 C 19.4398 21.7588 19.2217 21.4561 18.4038 21.4561 C 13.2513 21.4561 8.0988 21.4561 2.9191 21.4561 C 2.1012 21.4561 1.8559 21.7864 2.074 22.6125 C 7.799 22.6125 13.5512 22.6125 19.2762 22.6125 L 19.2762 22.6125 ZM 11.2339 8.6235 C 11.2339 8.1279 11.2339 7.6873 11.2339 7.2192 C 11.2339 5.7871 11.8882 5.1265 13.3058 5.1265 C 16.9044 5.1265 20.503 5.1265 24.0743 5.1265 C 24.2106 5.1265 24.3469 5.1265 24.4832 5.1265 C 24.4832 4.7131 24.4832 4.3552 24.4832 3.9697 C 24.3196 3.9697 24.1833 3.9697 24.047 3.9697 C 20.2303 3.9697 16.441 3.9697 12.6243 3.9697 C 12.3789 3.9697 12.1335 3.9697 11.8882 3.9697 C 10.7977 3.9971 10.0889 4.7131 10.0889 5.8147 C 10.0889 6.6133 10.0889 7.4395 10.0889 8.2378 C 10.0889 8.3481 10.0889 8.4858 10.0889 8.6235 C 10.4706 8.6235 10.825 8.6235 11.2339 8.6235 L 11.2339 8.6235 ZM 18.1584 20.2993 C 18.213 17.6006 17.3406 15.3701 15.187 13.7456 C 14.9143 13.5527 14.6689 13.3325 14.2873 13.3325 C 11.861 13.3325 9.4347 13.3325 7.0356 13.3325 C 6.8994 13.3325 6.763 13.3599 6.654 13.415 C 4.9364 14.5166 3.8187 16.0862 3.3552 18.0962 C 3.1917 18.8125 3.1644 19.5557 3.1917 20.2993 C 8.1806 20.2993 13.1423 20.2993 18.1584 20.2993 L 18.1584 20.2993 ZM 28 0.5 C 28 0.6377 27.9728 0.7754 27.9728 0.9131 C 27.9728 3.5291 27.9728 6.1726 27.9728 8.7888 C 27.9728 8.9265 27.9728 9.0642 27.9728 9.1743 C 27.2367 9.1743 26.5551 9.2568 25.8735 9.1467 C 25.0284 9.0366 24.5377 8.293 24.5105 7.3569 C 24.5105 7.0264 24.5105 6.6685 24.5105 6.2827 C 24.3742 6.2827 24.2379 6.2827 24.1288 6.2827 C 20.503 6.2827 16.8772 6.2827 13.2513 6.2827 C 12.597 6.2827 12.4062 6.4756 12.4062 7.1365 C 12.4062 7.6047 12.4062 8.0454 12.4062 8.5132 C 12.4062 8.541 12.4335 8.5684 12.4335 8.6235 C 12.7061 8.6235 13.0059 8.6235 13.3058 8.6235 C 14.5872 8.6235 15.2687 9.3394 15.2687 10.6062 C 15.2687 11.1294 15.2687 11.625 15.2687 12.1484 C 15.2687 12.2583 15.3505 12.4238 15.4595 12.5063 C 17.695 13.9932 18.8945 16.1138 19.2489 18.7573 C 19.3035 19.2256 19.2762 19.6934 19.3035 20.1616 C 19.3035 20.272 19.3853 20.437 19.4943 20.4922 C 20.1213 20.8501 20.4212 21.4009 20.4484 22.1167 C 20.4484 22.4199 20.4484 22.7227 20.4484 23.0256 C 20.4484 23.5762 20.2576 23.7966 19.6851 23.7966 C 17.5859 23.7966 15.4595 23.7966 13.3604 23.7966 C 9.4619 23.7966 5.5908 23.7966 1.6923 23.7966 C 0.9562 23.7966 0.8199 23.6589 0.8199 22.8879 C 0.8199 22.5574 0.8199 22.1995 0.8472 21.8691 C 0.9017 21.2908 1.1743 20.8501 1.665 20.5747 C 1.9377 20.437 1.9922 20.2444 1.9649 19.9966 C 1.9103 17.876 2.5101 15.9761 3.8732 14.3513 C 4.3912 13.7178 5.0728 13.1948 5.6998 12.644 C 5.9179 12.4512 6.0269 12.3135 5.9996 12.0381 C 5.9724 11.5425 5.9996 11.0469 5.9996 10.5786 C 5.9996 9.4221 6.7085 8.7061 7.8535 8.6787 C 8.1806 8.6787 8.535 8.6787 8.8894 8.6787 C 8.8894 8.0728 8.8894 7.522 8.8894 6.9438 C 8.9167 6.3103 8.8622 5.6494 8.9985 5.0437 C 9.3256 3.6392 10.4706 2.8408 11.9428 2.8408 C 15.9775 2.8408 19.985 2.8408 24.0198 2.8408 C 24.1561 2.8408 24.2924 2.8408 24.4559 2.8408 C 24.4559 2.6204 24.4559 2.4277 24.4559 2.2349 C 24.5105 1.4087 24.9467 0.8306 25.7372 0.5825 C 25.7645 0.5825 25.819 0.5276 25.8463 0.5276 C 26.6096 0.5 27.3184 0.5 28 0.5 L 28 0.5 Z" fill="#666666"/>
		<path d="M 8.1806 35.4724 C 7.8807 35.3071 7.7444 35.0596 7.7717 34.7014 C 7.799 34.0405 7.7717 33.3521 7.7717 32.6912 C 7.7717 32.2505 7.9898 32.0029 8.3442 32.0029 C 8.6986 32.0029 8.9167 32.2505 8.9167 32.6912 C 8.9167 33.3521 8.9167 34.0129 8.9167 34.6738 C 8.9167 35.0317 8.8077 35.3071 8.5078 35.5 C 8.426 35.4724 8.3169 35.4724 8.1806 35.4724 L 8.1806 35.4724 Z" fill="#666666"/>
		<path d="M 12.7879 35.197 C 12.488 35.0044 12.3789 34.729 12.3789 34.3711 C 12.4062 33.7375 12.3789 33.1318 12.3789 32.4985 C 12.3789 32.3882 12.3789 32.2781 12.4062 32.168 C 12.488 31.8652 12.6788 31.6997 13.0059 31.7275 C 13.2786 31.7275 13.524 31.9478 13.524 32.2505 C 13.5512 33.0493 13.5512 33.8752 13.4967 34.6738 C 13.4967 34.8667 13.2513 35.0317 13.115 35.2246 C 13.0059 35.197 12.8969 35.197 12.7879 35.197 L 12.7879 35.197 Z" fill="#666666"/>
		<path d="M 5.4817 31.3694 C 5.4817 30.9839 5.4817 30.626 5.4817 30.2402 C 5.4817 29.8823 5.6998 29.6621 5.9996 29.6345 C 6.3268 29.6069 6.5994 29.8274 6.5994 30.1853 C 6.6266 30.9839 6.6266 31.7825 6.5994 32.5535 C 6.5994 32.884 6.3268 33.1042 6.0269 33.1042 C 5.6998 33.1042 5.4817 32.8564 5.4544 32.4985 C 5.4544 32.1406 5.4817 31.7549 5.4817 31.3694 L 5.4817 31.3694 Z" fill="#666666"/>
		<path d="M 11.2339 26.7432 C 11.2339 27.1011 11.2339 27.459 11.2339 27.8447 C 11.2339 28.23 10.9886 28.478 10.6614 28.478 C 10.3343 28.478 10.0889 28.23 10.0889 27.8447 C 10.0889 27.1011 10.0889 26.3574 10.0889 25.5864 C 10.0889 25.2012 10.3343 24.9807 10.6887 24.9807 C 11.0159 24.9807 11.2339 25.2285 11.2339 25.5864 C 11.2339 25.9722 11.2339 26.3574 11.2339 26.7432 L 11.2339 26.7432 Z" fill="#666666"/>
		<path d="M 7.7717 29.0288 C 7.7717 28.6709 7.7717 28.3127 7.7717 27.9272 C 7.7717 27.5693 7.9898 27.3213 8.3169 27.3213 C 8.644 27.2939 8.9167 27.5417 8.9167 27.9272 C 8.944 28.6982 8.944 29.4419 8.9167 30.2129 C 8.9167 30.5708 8.644 30.8186 8.3169 30.8186 C 7.9898 30.791 7.7717 30.5708 7.7717 30.2129 C 7.7717 29.7998 7.7717 29.4141 7.7717 29.0288 L 7.7717 29.0288 Z" fill="#666666"/>
		<path d="M 10.0889 31.3694 C 10.0889 31.0115 10.0889 30.6533 10.0889 30.323 C 10.0889 29.9099 10.3071 29.6621 10.6614 29.6621 C 11.0159 29.6621 11.2339 29.9099 11.2339 30.323 C 11.2339 31.0391 11.2339 31.7825 11.2339 32.4985 C 11.2339 32.884 10.9886 33.1592 10.6614 33.1592 C 10.3343 33.1592 10.1162 32.884 10.0889 32.5259 C 10.0889 32.1128 10.0889 31.7275 10.0889 31.3694 L 10.0889 31.3694 Z" fill="#666666"/>
		<path d="M 5.4817 26.688 C 5.4817 26.3301 5.4817 25.9722 5.4817 25.5864 C 5.4817 25.2285 5.6998 24.9807 6.0269 24.9807 C 6.3541 24.9531 6.6266 25.2012 6.6266 25.5864 C 6.654 26.3574 6.654 27.1011 6.6266 27.8721 C 6.6266 28.2578 6.3541 28.478 6.0269 28.478 C 5.6998 28.4504 5.4817 28.23 5.4817 27.8721 C 5.4544 27.459 5.4817 27.0735 5.4817 26.688 L 5.4817 26.688 Z" fill="#666666"/>
		<path d="M 15.8412 26.7156 C 15.8412 27.1011 15.8412 27.459 15.8412 27.8447 C 15.8412 28.2026 15.6231 28.4504 15.296 28.4504 C 14.9688 28.4504 14.7234 28.2578 14.6962 27.8721 C 14.6689 27.1011 14.6689 26.3025 14.6962 25.5315 C 14.6962 25.1733 14.9688 24.9531 15.296 24.9807 C 15.6231 25.0083 15.814 25.2285 15.8412 25.5864 C 15.8685 25.9722 15.8412 26.3574 15.8412 26.7156 L 15.8412 26.7156 Z" fill="#666666"/>
		<path d="M 13.5512 29.0562 C 13.5512 29.4419 13.5512 29.7998 13.5512 30.1853 C 13.5512 30.5435 13.3331 30.791 13.0059 30.791 C 12.6788 30.8186 12.4062 30.5708 12.4062 30.1853 C 12.3789 29.4141 12.3789 28.6709 12.4062 27.8997 C 12.4062 27.5142 12.6788 27.2939 13.0059 27.2939 C 13.3331 27.2939 13.5512 27.5417 13.5512 27.8997 C 13.5512 28.3127 13.5512 28.6709 13.5512 29.0562 L 13.5512 29.0562 Z" fill="#666666"/>
		<path d="M 15.8412 31.4246 C 15.8412 31.7825 15.8412 32.1406 15.8412 32.5259 C 15.8412 32.9116 15.5958 33.1592 15.2687 33.1592 C 14.9688 33.1592 14.6962 32.9116 14.6962 32.5535 C 14.6689 31.7825 14.6689 31.0391 14.6962 30.2681 C 14.6962 29.8823 14.9688 29.6621 15.296 29.6621 C 15.6231 29.6621 15.8412 29.9099 15.8412 30.2954 C 15.8412 30.323 15.8412 30.3506 15.8412 30.3506 C 15.8412 30.7085 15.8412 31.0664 15.8412 31.4246 L 15.8412 31.4246 L 15.8412 31.4246 Z" fill="#666666"/>
		<path d="M 3.1644 29.0562 C 3.1644 28.6709 3.1644 28.3127 3.1644 27.9272 C 3.1644 27.5417 3.3826 27.3213 3.7097 27.3213 C 4.0368 27.2939 4.3094 27.5417 4.3094 27.9272 C 4.3367 28.6982 4.3367 29.4419 4.3094 30.2129 C 4.3094 30.5708 4.0368 30.8186 3.7369 30.8186 C 3.4098 30.8186 3.1917 30.5708 3.1644 30.1853 C 3.1644 30.1577 3.1644 30.1304 3.1644 30.1304 C 3.1644 29.7446 3.1644 29.4141 3.1644 29.0562 L 3.1644 29.0562 L 3.1644 29.0562 Z" fill="#666666"/>
		<path d="M 18.1584 29.084 C 18.1584 29.4419 18.1584 29.7998 18.1584 30.1853 C 18.1312 30.5708 17.9131 30.8186 17.5859 30.8186 C 17.2861 30.8186 17.0407 30.5708 17.0135 30.2129 C 16.9862 29.4419 16.9862 28.6982 17.0135 27.9272 C 17.0135 27.5693 17.2589 27.3489 17.5859 27.3489 C 17.9131 27.3489 18.1312 27.5693 18.1584 27.9546 C 18.1584 28.3127 18.1584 28.6982 18.1584 29.084 L 18.1584 29.084 L 18.1584 29.084 Z" fill="#666666"/>
	</g>
</svg>