<?xml version="1.0" standalone="no"?>
<!-- Generator: Adobe Fireworks 10, Export SVG Extension by Aaron Beall (http://fireworks.abeall.com) . Version: 0.6.1  -->
<!DOCTYPE svg PUBLIC "-//W3C//DTD SVG 1.1//EN" "http://www.w3.org/Graphics/SVG/1.1/DTD/svg11.dtd">
<svg id="Untitled-P%E1gina%201" viewBox="0 0 28 28" style="background-color:#ffffff00" version="1.1"
	xmlns="http://www.w3.org/2000/svg" xmlns:xlink="http://www.w3.org/1999/xlink" xml:space="preserve"
	x="0px" y="0px" width="28px" height="28px"
>
	<path d="M 6.5482 1.6697 C 7.9091 1.6697 9.2444 1.6697 10.6055 1.6697 C 11.0164 1.6697 11.3245 1.8496 11.4529 2.1836 C 11.684 2.7485 11.2731 3.2881 10.6055 3.2881 C 8.5511 3.2881 6.4968 3.2881 4.4167 3.2881 C 3.7748 3.2881 3.1329 3.2881 2.5166 3.2881 C 2.1314 3.2881 1.8746 3.1084 1.7205 2.7744 C 1.4894 2.2349 1.9002 1.6697 2.5422 1.6697 C 3.8518 1.6697 5.1872 1.6697 6.5482 1.6697 L 6.5482 1.6697 ZM 18.9512 14.8477 C 16.7684 14.8477 14.5858 14.8477 12.403 14.8477 C 11.8638 14.8477 11.5043 14.5137 11.5043 14.0256 C 11.5043 13.5376 11.8638 13.2036 12.403 13.2036 C 12.4543 13.2036 12.5057 13.2036 12.5571 13.2036 C 16.8198 13.2036 21.0568 13.2036 25.3196 13.2036 C 25.4223 13.2036 25.525 13.2036 25.6277 13.2036 C 26.09 13.2551 26.3981 13.6147 26.3724 14.0771 C 26.3467 14.5396 25.9872 14.822 25.4736 14.822 C 23.2909 14.8477 21.1082 14.8477 18.9512 14.8477 L 18.9512 14.8477 ZM 9.8351 4.9578 C 9.8351 5.0605 9.8351 5.1377 9.8351 5.2402 C 9.8351 8.1172 9.8351 10.9946 9.8351 13.8716 C 9.8351 14.5396 9.5269 14.8477 8.8593 14.8477 C 7.3442 14.8477 5.8291 14.8477 4.2884 14.8477 C 3.5694 14.8477 3.2869 14.5396 3.2869 13.8457 C 3.2869 10.9946 3.2869 8.1172 3.2869 5.2661 C 3.2869 5.1636 3.2869 5.0605 3.2869 4.9834 C 5.4954 4.9578 7.6524 4.9578 9.8351 4.9578 L 9.8351 4.9578 ZM 9.8351 26.3816 C 9.8351 25.791 9.8607 25.2256 9.8351 24.6606 C 9.7838 23.4531 9.2958 22.3999 8.3971 21.5781 C 7.8835 21.0898 7.2415 20.8074 6.5995 20.5505 C 5.9318 20.2678 5.4697 19.7798 5.1615 19.1118 C 4.802 18.2642 4.9818 17.3911 4.9304 16.5173 C 11.5299 16.5173 18.0781 16.5173 24.6519 16.5173 C 24.6519 16.5688 24.6519 16.5947 24.6519 16.6201 C 24.5235 17.5962 24.2153 18.521 23.7017 19.3687 C 22.5976 21.2183 21.0056 22.3999 18.9255 22.8882 C 18.3605 23.0166 18.1552 23.2993 18.1552 23.8643 C 18.1552 24.5322 18.1552 25.1743 18.1552 25.8423 C 18.1552 26.022 18.1552 26.2017 18.1552 26.3816 C 15.3818 26.3816 12.6341 26.3816 9.8351 26.3816 L 9.8351 26.3816 ZM 0 2.8257 C 0.1284 3.2881 0.2568 3.7505 0.6163 4.0845 C 0.873 4.3157 1.1299 4.521 1.438 4.7007 C 1.6178 4.8037 1.6691 4.8809 1.6691 5.0605 C 1.6691 7.9634 1.6691 10.8662 1.6691 13.7688 C 1.6691 14.9248 2.1057 15.7725 3.1843 16.2605 C 3.2612 16.2861 3.3126 16.4148 3.3126 16.5173 C 3.3126 16.98 3.3126 17.4165 3.3126 17.8789 C 3.3126 19.8313 4.4167 21.4238 6.24 22.1172 C 7.6267 22.6567 8.243 23.5559 8.243 25.0459 C 8.243 25.7139 8.243 26.3816 8.243 27.0752 C 8.243 27.6919 8.5768 28 9.1674 28 C 12.403 28 15.6642 28 18.8998 28 C 19.5161 28 19.8243 27.666 19.8243 27.0752 C 19.8243 26.2532 19.8243 25.4053 19.8243 24.5835 C 19.8243 24.3779 19.8756 24.3008 20.0554 24.2495 C 22.4178 23.5044 24.164 22.0146 25.3452 19.8313 C 25.8845 18.8291 26.1926 17.7246 26.321 16.5947 C 26.321 16.4917 26.4238 16.3374 26.5008 16.2861 C 27.6307 15.7471 28.1956 14.6421 27.9388 13.4863 C 27.682 12.3303 26.6805 11.5596 25.448 11.5596 C 24.806 11.5596 24.164 11.5596 23.5477 11.5596 C 20.5433 11.5596 17.5132 11.5596 14.5087 11.5596 C 13.5072 11.5596 12.5314 11.5854 11.5043 11.5854 C 11.5043 11.5596 11.5043 11.4827 11.5043 11.3799 C 11.5043 9.2734 11.5043 7.1411 11.5043 5.0352 C 11.5043 4.8809 11.5043 4.7778 11.684 4.7007 C 12.7368 4.2129 13.2504 3.2368 13.0964 2.0806 C 12.9679 1.0532 12.1205 0.2314 11.0421 0.0513 C 11.0164 0.0513 10.965 0.0256 10.9393 0 C 8.0119 0 5.1102 0 2.1827 0 C 2.157 0.0256 2.1057 0.0256 2.08 0.0513 C 1.438 0.1543 0.9501 0.4624 0.5393 0.9507 C 0.2311 1.3101 0.1027 1.7471 0 2.209 C 0 2.4148 0 2.6201 0 2.8257 L 0 2.8257 Z" fill="#666666"/>
</svg>