<?xml version="1.0" standalone="no"?>
<!-- Generator: Adobe Fireworks 10, Export SVG Extension by Aaron Beall (http://fireworks.abeall.com) . Version: 0.6.1  -->
<!DOCTYPE svg PUBLIC "-//W3C//DTD SVG 1.1//EN" "http://www.w3.org/Graphics/SVG/1.1/DTD/svg11.dtd">
<svg id="Untitled-P%E1gina%201" viewBox="0 0 30 30" style="background-color:#ffffff00" version="1.1"
	xmlns="http://www.w3.org/2000/svg" xmlns:xlink="http://www.w3.org/1999/xlink" xml:space="preserve"
	x="0px" y="0px" width="30px" height="30px"
>
	<g>
		<path d="M 20.6917 29.9493 C 20.1849 29.8651 19.6782 29.7976 19.1713 29.6964 C 17.8199 29.4266 16.5698 28.887 15.3365 28.2968 C 10.4881 25.9022 6.6027 22.4115 3.5618 17.9426 C 2.2441 16.0034 1.1967 13.9292 0.4872 11.7032 C 0.0818 10.4047 -0.1547 9.0725 0.1155 7.7065 C 0.2507 7.0658 0.521 6.4924 0.9771 6.0203 C 1.7711 5.2108 2.5651 4.4014 3.376 3.6256 C 4.4065 2.6476 5.5552 2.6476 6.5688 3.6425 C 7.7514 4.806 8.9171 5.9865 10.0827 7.1501 C 10.6064 7.6729 10.9442 8.2799 10.826 9.0557 C 10.7415 9.629 10.4036 10.0675 10.0151 10.4722 C 9.3563 11.1299 8.6805 11.7875 8.0217 12.462 C 7.6838 12.7993 7.6669 12.9005 7.8696 13.339 C 8.6298 15.0253 9.7786 16.4418 11.0287 17.774 C 12.2619 19.1062 13.6303 20.3036 15.1676 21.2816 C 15.6913 21.6189 16.2657 21.8718 16.8063 22.1754 C 17.0596 22.3103 17.2455 22.2091 17.4313 22.0236 C 18.1071 21.3322 18.7828 20.6577 19.4754 19.9832 C 19.6782 19.7808 19.9146 19.5784 20.1511 19.4435 C 20.9451 18.9713 21.8067 19.0388 22.5162 19.629 C 22.6514 19.7471 22.8034 19.8651 22.9385 20 C 24.0535 21.0961 25.1516 22.1923 26.2496 23.3052 C 26.52 23.5751 26.7734 23.8954 26.9254 24.2495 C 27.2632 24.9916 27.1281 25.7335 26.6044 26.3237 C 25.7429 27.2681 24.8306 28.1787 23.9015 29.0725 C 23.3947 29.5615 22.7358 29.8145 22.0432 29.9325 C 21.9587 29.9493 21.8743 29.9663 21.7898 30 C 21.4182 29.9493 21.0634 29.9493 20.6917 29.9493 L 20.6917 29.9493 Z" fill="#666666"/>
		<path d="M 30 14.0304 C 29.2398 14.1653 28.4796 14.3002 27.7025 14.4519 C 27.1281 11.2985 25.709 8.5835 23.4285 6.3575 C 21.131 4.1316 18.3942 2.7993 15.1676 2.3103 C 15.2689 1.5345 15.3872 0.7758 15.4886 0 C 16.9414 0.2024 18.3267 0.5734 19.6443 1.113 C 22.1446 2.1416 24.2731 3.6931 26.0469 5.7167 C 27.7701 7.6897 28.9695 9.9325 29.6453 12.462 C 29.7804 12.9342 29.8817 13.4232 30 13.8955 C 30 13.9629 30 13.9966 30 14.0304 L 30 14.0304 Z" fill="#666666"/>
		<path d="M 15.1676 6.0034 C 19.222 6.4586 23.1075 9.7808 23.9015 14.4351 C 23.1581 14.5699 22.3979 14.688 21.604 14.8229 C 21.283 13.1198 20.5228 11.6526 19.2896 10.4553 C 18.0563 9.2581 16.5698 8.5497 14.8466 8.2799 C 14.9648 7.5211 15.0662 6.7622 15.1676 6.0034 L 15.1676 6.0034 Z" fill="#666666"/>
	</g>
</svg>