<?xml version="1.0" standalone="no"?>
<!-- Generator: Adobe Fireworks 10, Export SVG Extension by Aaron Beall (http://fireworks.abeall.com) . Version: 0.6.1  -->
<!DOCTYPE svg PUBLIC "-//W3C//DTD SVG 1.1//EN" "http://www.w3.org/Graphics/SVG/1.1/DTD/svg11.dtd">
<svg id="Untitled-P%E1gina%201" viewBox="0 0 40 40" style="background-color:#ffffff00" version="1.1"
	xmlns="http://www.w3.org/2000/svg" xmlns:xlink="http://www.w3.org/1999/xlink" xml:space="preserve"
	x="0px" y="0px" width="40px" height="40px"
>
	<g>
		<path d="M 40 19.9985 C 40 8.9536 31.046 0 20.0006 0 C 8.9542 0 0 8.9536 0 19.9985 C 0 31.0437 8.9542 40 20.0006 40 C 31.046 40 40 31.0437 40 19.9985 Z" fill="#d40c18"/>
		<path d="M 25.1122 27.3821 L 14.8889 27.3821 C 12.1537 27.3821 9.9365 25.1646 9.9365 22.4294 L 9.9365 17.5737 C 9.9365 14.8386 12.1537 12.6211 14.8889 12.6211 L 25.1122 12.6211 C 27.8477 12.6211 30.0648 14.8386 30.0648 17.5737 L 30.0648 22.4294 C 30.0648 25.1646 27.8477 27.3821 25.1122 27.3821 Z" fill="#ffffff"/>
		<path d="M 24.0911 20.0461 L 17.3693 23.6772 C 17.1445 23.7986 16.8721 23.636 16.8721 23.3809 L 16.8691 16.0896 C 16.8691 15.834 17.1427 15.6714 17.3674 15.7935 L 24.0918 19.4536 C 24.3269 19.5815 24.3263 19.9192 24.0911 20.0461 Z" fill="#db0c0b"/>
	</g>
</svg>