<?xml version="1.0" standalone="no"?>
<!-- Generator: Adobe Fireworks 10, Export SVG Extension by Aaron Beall (http://fireworks.abeall.com) . Version: 0.6.1  -->
<!DOCTYPE svg PUBLIC "-//W3C//DTD SVG 1.1//EN" "http://www.w3.org/Graphics/SVG/1.1/DTD/svg11.dtd">
<svg id="Untitled-P%E1gina%201" viewBox="0 0 30 30" style="background-color:#ffffff00" version="1.1"
	xmlns="http://www.w3.org/2000/svg" xmlns:xlink="http://www.w3.org/1999/xlink" xml:space="preserve"
	x="0px" y="0px" width="30px" height="30px"
>
	<g>
		<path d="M 8.2869 25.2448 L 8.7418 25.514 C 10.6475 26.6401 12.8299 27.2338 15.0615 27.2338 L 15.0676 27.2338 C 21.9099 27.2338 27.4796 21.6891 27.4796 14.8776 C 27.4796 11.579 26.1885 8.47 23.8463 6.1383 C 21.4979 3.8005 18.3812 2.5092 15.0676 2.5092 C 8.2192 2.5092 2.6496 8.0538 2.6496 14.8654 C 2.6496 17.197 3.3074 19.4736 4.5492 21.4382 L 4.8442 21.9033 L 3.5901 26.4626 L 8.2869 25.2448 L 8.2869 25.2448 ZM 0 30 L 2.1209 22.2949 C 0.8115 20.0428 0.1291 17.4847 0.1291 14.8654 C 0.1291 6.6708 6.8299 0 15.0615 0 C 19.0574 0 22.8074 1.5483 25.6291 4.3574 C 28.4509 7.1665 30 10.8997 30 14.8776 C 29.9938 23.0723 23.293 29.7429 15.0615 29.7429 L 15.0615 29.7429 L 15.0553 29.7429 C 12.5533 29.7429 10.1004 29.1188 7.918 27.9314 L 0 30 L 0 30 Z" fill="#666666"/>
		<path d="M 11.33 8.6475 C 11.0533 8.0294 10.7582 8.0171 10.4877 8.0049 C 10.2725 7.9927 10.0205 7.9988 9.7746 7.9988 C 9.5287 7.9988 9.1229 8.0906 8.7787 8.4639 C 8.4344 8.8372 7.4692 9.7368 7.4692 11.5605 C 7.4692 13.3905 8.8094 15.153 8.9938 15.4039 C 9.1783 15.6548 11.5758 19.5226 15.3688 21.0098 C 18.5225 22.246 19.1619 22.0012 19.8504 21.9401 C 20.5389 21.8788 22.0574 21.0404 22.3709 20.1714 C 22.6844 19.3024 22.6844 18.5618 22.5861 18.4027 C 22.4939 18.2496 22.2418 18.1578 21.873 17.9681 C 21.5041 17.7784 19.666 16.8849 19.3217 16.7565 C 18.9775 16.634 18.7316 16.5729 18.4795 16.9401 C 18.2275 17.3134 17.5143 18.1456 17.2992 18.3966 C 17.084 18.6475 16.8627 18.6781 16.4877 18.4884 C 16.1127 18.3048 14.9139 17.9131 13.4877 16.6462 C 12.3812 15.661 11.6312 14.4431 11.4099 14.0759 C 11.1946 13.7025 11.4037 13.5189 11.5758 13.317 C 11.877 12.9498 12.3812 12.2949 12.5103 12.0441 C 12.6332 11.7931 12.5717 11.579 12.4795 11.3954 C 12.3873 11.224 11.6619 9.3881 11.33 8.6475 L 11.33 8.6475 Z" fill="#666666"/>
	</g>
</svg>