<?xml version="1.0" standalone="no"?>
<!-- Generator: Adobe Fireworks 10, Export SVG Extension by Aaron Beall (http://fireworks.abeall.com) . Version: 0.6.1  -->
<!DOCTYPE svg PUBLIC "-//W3C//DTD SVG 1.1//EN" "http://www.w3.org/Graphics/SVG/1.1/DTD/svg11.dtd">
<svg id="Untitled-P%E1gina%201" viewBox="0 0 33 35" style="background-color:#ffffff00" version="1.1"
	xmlns="http://www.w3.org/2000/svg" xmlns:xlink="http://www.w3.org/1999/xlink" xml:space="preserve"
	x="0px" y="0px" width="33px" height="35px"
>
	<g>
		<path d="M 17.0098 2.6355 C 17.0098 2.8282 17.0098 2.8926 17.0098 2.989 C 17.0098 4.0497 16.9766 5.078 17.0098 6.1387 C 17.0431 7.1671 17.8087 7.8743 18.8739 7.8743 C 19.8392 7.8743 20.7712 7.8743 21.7366 7.8743 C 21.8364 7.8743 21.9696 7.8743 22.136 7.842 C 20.4384 6.1066 18.774 4.4032 17.0098 2.6355 L 17.0098 2.6355 ZM 22.6021 33.618 C 27.4953 33.5859 31.4565 29.7614 31.4565 25.0367 C 31.4565 20.3123 27.4287 16.4554 22.5688 16.4877 C 17.6755 16.5198 13.681 20.3765 13.7144 25.069 C 13.7809 29.7935 17.7421 33.618 22.6021 33.618 L 22.6021 33.618 ZM 14.3135 18.9624 C 14.1138 18.9624 13.9807 18.9624 13.8475 18.9624 C 11.4175 18.9624 8.9543 18.9624 6.5243 18.9624 C 6.3911 18.9624 6.2581 18.9624 6.1249 18.9624 C 5.6921 18.9302 5.4258 18.641 5.3926 18.2552 C 5.3926 17.8696 5.6588 17.5803 6.1249 17.5161 C 6.2247 17.5161 6.3578 17.5161 6.491 17.5161 C 9.4203 17.5161 12.3496 17.5161 15.3121 17.5161 C 15.6117 17.5161 15.8781 17.4518 16.1111 17.259 C 17.9086 15.877 19.9391 15.1378 22.236 15.0414 C 22.5688 15.0414 22.9016 15.0414 23.2345 15.0414 C 23.2345 13.1129 23.2345 11.2489 23.2345 9.3527 C 23.0681 9.3527 22.9349 9.3527 22.8351 9.3527 C 21.6035 9.3527 20.4052 9.3527 19.1735 9.3527 C 18.8074 9.3527 18.4412 9.3206 18.075 9.2562 C 16.5105 8.8384 15.5785 7.6493 15.5452 6.0422 C 15.5452 4.6603 15.5452 3.3104 15.5452 1.9285 C 15.5452 1.7998 15.5452 1.7034 15.5119 1.5748 C 15.3787 1.5748 15.3121 1.5427 15.2123 1.5427 C 11.5507 1.5427 7.8891 1.5427 4.2275 1.5427 C 3.9612 1.5427 3.6949 1.5748 3.4286 1.639 C 2.197 1.9606 1.5312 2.8926 1.5312 4.2424 C 1.5312 11.506 1.5312 18.8016 1.5312 26.0652 C 1.5312 26.483 1.6311 26.9651 1.7975 27.3507 C 2.2968 28.3793 3.1956 28.7649 4.3273 28.7328 C 7.0569 28.7328 9.7864 28.7328 12.516 28.7328 C 12.6492 28.7328 12.749 28.7328 12.9155 28.7007 C 12.516 27.7042 12.283 26.708 12.2164 25.7117 C 12.1499 24.6832 12.2498 23.6869 12.4495 22.6906 C 12.283 22.6906 12.1831 22.6906 12.05 22.6906 C 10.1193 22.6906 8.1554 22.6906 6.2247 22.6906 C 5.6921 22.6906 5.3593 22.4012 5.3593 21.9514 C 5.3593 21.5336 5.6921 21.2443 6.2247 21.2443 C 6.3246 21.2443 6.4244 21.2443 6.5243 21.2443 C 8.3551 21.2443 10.1859 21.2122 12.0167 21.2764 C 12.7158 21.3085 13.215 21.2122 13.3815 20.4729 C 13.4148 20.3765 13.4814 20.28 13.5146 20.2157 C 13.7477 19.7981 14.0139 19.4124 14.3135 18.9624 L 14.3135 18.9624 ZM 16.444 0.0643 C 16.6437 0.225 16.8766 0.3535 17.0431 0.5143 C 19.4731 2.989 21.9031 5.4316 24.333 7.9064 C 24.5993 8.1635 24.7325 8.4526 24.7325 8.8062 C 24.7325 10.799 24.7325 12.7915 24.7325 14.7843 C 24.7325 14.9127 24.7325 15.0414 24.7325 15.1378 C 25.4315 15.3627 26.0972 15.5555 26.7297 15.8127 C 30.0917 17.2911 32.2222 19.7659 32.8213 23.2369 C 33.5203 27.1257 32.1555 30.4041 28.96 32.8788 C 27.3622 34.1322 25.5314 34.775 23.4675 34.9679 C 23.401 34.9679 23.3677 35 23.3011 35 C 22.7685 35 22.2692 35 21.7366 35 C 21.67 34.9679 21.6035 34.9357 21.5369 34.9357 C 18.2415 34.5822 15.7115 33.0394 13.8808 30.4041 C 13.7144 30.1791 13.5812 30.1149 13.3149 30.1149 C 10.3191 30.1149 7.3232 30.1149 4.3273 30.1149 C 3.9612 30.1149 3.5617 30.0826 3.1956 30.0183 C 1.2649 29.6006 0 28.0577 0 26.1295 C 0 21.0514 0 15.9734 0 10.8953 C 0 8.5813 0 6.2993 0 3.9854 C 0 2.6355 0.5659 1.4784 1.731 0.7391 C 2.2635 0.3856 2.9293 0.2571 3.5284 0 C 7.8558 0.0643 12.1499 0.0643 16.444 0.0643 L 16.444 0.0643 Z" fill="#000000"/>
		<path d="M 9.9196 15.2985 C 8.7213 15.2985 7.5229 15.2985 6.3578 15.2985 C 6.1914 15.2985 6.0582 15.2985 5.8918 15.2341 C 5.559 15.1378 5.3593 14.8484 5.3926 14.4949 C 5.4258 14.1735 5.6588 13.8843 5.9917 13.8522 C 6.1249 13.8199 6.2581 13.8199 6.4244 13.8199 C 8.7545 13.8199 11.1179 13.8199 13.4481 13.8199 C 13.4814 13.8199 13.5146 13.8199 13.5479 13.8199 C 14.1471 13.8199 14.5132 14.1093 14.5132 14.5592 C 14.5132 15.0092 14.1471 15.2662 13.5479 15.2662 C 12.3496 15.2985 11.1512 15.2985 9.9196 15.2985 L 9.9196 15.2985 Z" fill="#000000"/>
		<path d="M 21.8364 27.9937 C 21.8364 27.865 21.8364 27.7365 21.8364 27.6079 C 21.8364 25.1974 21.8364 22.7869 21.8364 20.4087 C 21.8364 19.8622 22.0362 19.573 22.4357 19.4766 C 22.8018 19.3802 23.2012 19.6051 23.3011 19.9586 C 23.3344 20.1194 23.3677 20.28 23.3677 20.4729 C 23.3677 22.8834 23.3677 25.2938 23.3677 27.6722 C 23.3677 27.8008 23.3677 27.9293 23.3677 28.0258 C 23.401 28.0577 23.4343 28.09 23.5009 28.1221 C 23.5674 28.0258 23.6007 27.9293 23.6672 27.865 C 24.5327 26.933 25.4315 26.0331 26.297 25.1011 C 26.3969 24.9724 26.53 24.876 26.6631 24.7797 C 26.9294 24.6189 27.3289 24.6511 27.5286 24.876 C 27.7616 25.1011 27.8282 25.3903 27.6617 25.6794 C 27.5952 25.8081 27.4953 25.9366 27.3955 26.0331 C 26.0306 27.4471 24.6326 28.8934 23.2678 30.3076 C 22.7685 30.8219 22.369 30.8219 21.8698 30.3076 C 20.505 28.8934 19.1069 27.4471 17.7421 26.0331 C 17.5757 25.8724 17.4758 25.6473 17.4093 25.4225 C 17.3427 25.1332 17.5092 24.876 17.7754 24.7797 C 18.0084 24.7153 18.2747 24.7476 18.5078 24.7797 C 18.6409 24.8118 18.7407 24.9403 18.8406 25.069 C 19.7061 25.9688 20.6049 26.8688 21.4703 27.8008 C 21.5369 27.8972 21.6035 27.9615 21.67 28.0577 C 21.7699 28.0258 21.8032 27.9937 21.8364 27.9937 L 21.8364 27.9937 Z" fill="#000000"/>
	</g>
</svg>