<?xml version="1.0" standalone="no"?>
<!-- Generator: Adobe Fireworks 10, Export SVG Extension by Aaron Beall (http://fireworks.abeall.com) . Version: 0.6.1  -->
<!DOCTYPE svg PUBLIC "-//W3C//DTD SVG 1.1//EN" "http://www.w3.org/Graphics/SVG/1.1/DTD/svg11.dtd">
<svg id="Untitled-P%E1gina%201" viewBox="0 0 21 21" style="background-color:#ffffff00" version="1.1"
	xmlns="http://www.w3.org/2000/svg" xmlns:xlink="http://www.w3.org/1999/xlink" xml:space="preserve"
	x="0px" y="0px" width="21px" height="21px"
>
	<path d="M 0.5 8.5717 C 0.5 4.2668 4.0874 0.5 8.6613 0.5 C 13.056 0.5 16.7333 3.9978 16.7333 8.5717 C 16.7333 10.9036 15.4775 12.3386 15.4775 12.8767 C 15.4775 13.5045 20.5 17.0022 20.5 18.796 C 20.5 19.6031 19.8722 20.5 18.8856 20.5 C 18.6166 20.5 18.1681 20.4103 17.8093 20.1414 C 16.1952 18.796 13.1458 15.4775 12.8767 15.4775 C 12.4282 15.4775 10.9933 16.7332 8.5718 16.7332 C 4.3564 16.7332 0.5 13.1458 0.5 8.5717 L 0.5 8.5717 ZM 2.6525 8.5717 C 2.6525 12.2489 5.7018 14.5807 8.7511 14.5807 C 12.2489 14.5807 14.5807 11.5314 14.5807 8.5717 C 14.5807 5.1637 12.0695 2.6525 8.6613 2.6525 C 5.2534 2.6525 2.6525 5.1637 2.6525 8.5717 L 2.6525 8.5717 Z" fill="#000000"/>
</svg>