<?xml version="1.0" standalone="no"?>
<!-- Generator: Adobe Fireworks 10, Export SVG Extension by Aaron Beall (http://fireworks.abeall.com) . Version: 0.6.1  -->
<!DOCTYPE svg PUBLIC "-//W3C//DTD SVG 1.1//EN" "http://www.w3.org/Graphics/SVG/1.1/DTD/svg11.dtd">
<svg id="Untitled-P%E1gina%201" viewBox="0 0 35 28" style="background-color:#ffffff00" version="1.1"
	xmlns="http://www.w3.org/2000/svg" xmlns:xlink="http://www.w3.org/1999/xlink" xml:space="preserve"
	x="0px" y="0px" width="35px" height="28px"
>
	<g>
		<path d="M 6.7429 14.2222 C 6.1123 13.5381 5.5544 12.9253 4.9238 12.2651 C 4.9238 12.9722 4.9238 13.5854 4.9238 14.2222 C 5.5302 14.2222 6.088 14.2222 6.7429 14.2222 L 6.7429 14.2222 ZM 2.4983 3.9175 C 3.0562 3.9175 3.5412 3.4463 3.5412 2.9038 C 3.5412 2.3379 3.0562 1.8896 2.474 1.8896 C 1.9161 1.8896 1.431 2.3613 1.4553 2.9272 C 1.4553 3.4697 1.9404 3.9175 2.4983 3.9175 L 2.4983 3.9175 ZM 31.5073 22.7578 C 31.8954 23.8896 32.2834 24.998 32.6715 26.1533 C 32.9383 26.1533 33.2779 26.1533 33.6417 26.1533 C 33.6417 25.0215 33.6417 23.8896 33.6417 22.7578 C 32.8898 22.7578 32.1622 22.7578 31.5073 22.7578 L 31.5073 22.7578 ZM 1.4553 26.1533 C 1.8191 26.1533 2.1587 26.1533 2.4255 26.1533 C 2.8379 24.998 3.2259 23.8662 3.5897 22.7578 C 2.9106 22.7578 2.183 22.7578 1.4553 22.7578 C 1.4553 23.8896 1.4553 25.0215 1.4553 26.1533 L 1.4553 26.1533 ZM 10.5267 13.3496 C 10.551 12.6421 10.3569 12.0999 9.9203 11.6519 C 9.1441 10.8264 8.368 10.0012 7.6161 9.1523 C 7.0582 8.5156 6.3306 8.3035 5.5302 8.3035 C 5.1906 8.3035 4.9481 8.4922 4.9238 8.8223 C 4.851 9.624 4.9723 10.355 5.5787 10.9683 C 6.3548 11.7698 7.1067 12.5715 7.8344 13.3967 C 8.3923 14.0332 9.1199 14.2456 9.9446 14.2222 C 10.2841 14.1982 10.454 14.0332 10.5267 13.7268 C 10.5267 13.5854 10.5267 13.4204 10.5267 13.3496 L 10.5267 13.3496 ZM 3.5412 14.2222 C 3.5412 14.0806 3.5412 13.9624 3.5412 13.8447 C 3.5412 11.416 3.5412 9.0107 3.5412 6.582 C 3.5412 6.2993 3.5412 6.04 3.5412 5.7568 C 3.5412 5.3796 3.3957 5.2383 3.0076 5.2383 C 2.6923 5.2383 2.4012 5.2383 2.0859 5.2383 C 1.5523 5.2383 1.4553 5.356 1.4553 5.8513 C 1.4553 8.5156 1.4553 11.2039 1.4553 13.8684 C 1.4553 13.9863 1.4553 14.0806 1.4553 14.1982 C 2.1587 14.2222 2.8136 14.2222 3.5412 14.2222 L 3.5412 14.2222 ZM 11.9092 13.8213 C 11.9092 15.0239 11.9092 16.1792 11.9092 17.3345 C 11.9092 17.6177 12.1033 17.7825 12.4186 17.8062 C 12.5399 17.8062 12.6368 17.8062 12.7582 17.8062 C 19.4283 17.8062 26.0984 17.8062 32.7686 17.8062 C 32.8656 17.8062 32.9626 17.8062 33.0353 17.8062 C 33.4234 17.7825 33.6175 17.5938 33.6175 17.2168 C 33.6175 16.792 33.6175 16.3442 33.6175 15.9199 C 33.6175 15.1653 33.2536 14.6465 32.5503 14.3398 C 31.6528 13.939 30.7068 13.7979 29.7366 13.7979 C 23.8669 13.7979 17.9972 13.7979 12.1275 13.7979 C 12.079 13.7979 12.0305 13.8213 11.9092 13.8213 L 11.9092 13.8213 ZM 35 27.0259 C 34.8059 27.3794 34.5149 27.521 34.1025 27.4976 C 33.4477 27.4741 32.817 27.4976 32.1622 27.4976 C 31.5315 27.4976 31.3618 27.3088 31.2405 26.7192 C 31.0464 25.8706 30.8281 24.998 30.5371 24.1729 C 30.3915 23.772 30.1248 23.4182 29.8822 23.041 C 29.7366 22.8052 29.5184 22.7344 29.2273 22.7344 C 24.0125 22.7344 18.7977 22.7344 13.6071 22.7344 C 13.4615 22.7344 13.316 22.7344 13.1705 22.7107 C 12.8309 22.6636 12.6126 22.4277 12.5884 22.1213 C 12.5641 21.791 12.7582 21.5083 13.0977 21.4375 C 13.2432 21.4138 13.413 21.4138 13.5828 21.4138 C 20.0832 21.4138 26.5835 21.4138 33.1081 21.4138 C 33.2779 21.4138 33.4234 21.4138 33.6175 21.4138 C 33.6175 20.6357 33.6175 19.8811 33.6175 19.1504 C 32.3562 19.1504 31.0949 19.1504 29.8337 19.1504 C 24.158 19.1504 18.4581 19.1504 12.7824 19.1504 C 12.5399 19.1504 12.2731 19.1504 12.0305 19.103 C 11.23 18.938 10.6237 18.2778 10.551 17.4761 C 10.5024 16.9807 10.5267 16.4622 10.5267 15.9434 C 10.5267 15.8257 10.5267 15.7075 10.5024 15.5659 C 7.4705 15.5659 4.4629 15.5659 1.431 15.5659 C 1.431 17.4998 1.431 19.4331 1.431 21.3904 C 1.5766 21.3904 1.6978 21.3904 1.8191 21.3904 C 3.5412 21.3904 5.2634 21.3904 6.9612 21.3904 C 7.0825 21.3904 7.2037 21.3904 7.325 21.4138 C 7.6888 21.4846 7.9072 21.7441 7.9072 22.0977 C 7.8829 22.4277 7.6403 22.7107 7.2766 22.7107 C 6.7672 22.7344 6.282 22.7344 5.7727 22.7107 C 5.4817 22.6873 5.2876 22.8052 5.1178 23.0171 C 4.5357 23.772 4.2204 24.6445 3.9778 25.5403 C 3.8808 25.9414 3.808 26.3418 3.7595 26.7432 C 3.6625 27.2617 3.4685 27.4502 2.9106 27.4502 C 2.2314 27.4502 1.5766 27.4268 0.8974 27.4502 C 0.4851 27.4741 0.1941 27.3323 0 26.979 C 0 19.7397 0 12.5244 0 5.2852 C 0.1698 4.9551 0.3395 4.625 0.4851 4.342 C 0.3153 3.9648 0.1698 3.5874 0 3.2339 C 0 2.9746 0 2.6914 0 2.4321 C 0.0242 2.3613 0.0728 2.2671 0.097 2.1963 C 0.4124 1.2529 1.0915 0.6636 2.1102 0.522 C 3.1046 0.4041 3.9051 0.7578 4.4387 1.583 C 4.9965 2.4321 4.9723 3.3044 4.4144 4.1533 C 4.3659 4.2241 4.3174 4.2715 4.2689 4.3657 C 5.0935 5.1201 4.754 6.1106 4.851 7.0063 C 6.4276 6.8418 7.7373 7.2422 8.7561 8.4451 C 9.4109 9.2231 10.1871 9.9307 10.842 10.7324 C 11.1816 11.1328 11.4484 11.6282 11.6667 12.1235 C 11.7879 12.3591 11.8607 12.4536 12.1275 12.4536 C 17.1725 12.4536 22.1934 12.4536 27.2384 12.4536 C 28.4269 12.4536 29.6396 12.4299 30.8039 12.5715 C 31.5801 12.6421 32.3804 12.9014 33.1324 13.1846 C 34.0783 13.5381 34.6119 14.269 34.8545 15.2358 C 34.8787 15.3066 34.903 15.354 34.9272 15.4011 C 35 19.2917 35 23.1589 35 27.0259 L 35 27.0259 Z" fill="#666666"/>
		<path d="M 10.2841 22.7344 C 9.8961 22.7344 9.6292 22.4512 9.605 22.0977 C 9.605 21.7441 9.8961 21.4375 10.2599 21.4375 C 10.6479 21.4375 10.9633 21.7441 10.939 22.0977 C 10.939 22.4512 10.6479 22.7344 10.2841 22.7344 L 10.2841 22.7344 Z" fill="#666666"/>
	</g>
</svg>