<?xml version="1.0" standalone="no"?>
<!-- Generator: Adobe Fireworks 10, Export SVG Extension by Aaron Beall (http://fireworks.abeall.com) . Version: 0.6.1  -->
<!DOCTYPE svg PUBLIC "-//W3C//DTD SVG 1.1//EN" "http://www.w3.org/Graphics/SVG/1.1/DTD/svg11.dtd">
<svg id="Untitled-P%E1gina%201" viewBox="0 0 24 30" style="background-color:#ffffff00" version="1.1"
	xmlns="http://www.w3.org/2000/svg" xmlns:xlink="http://www.w3.org/1999/xlink" xml:space="preserve"
	x="0px" y="0px" width="24px" height="30px"
>
	<path d="M 17.2653 11.2565 C 17.2521 8.4067 14.8955 6.0881 11.9962 6.1011 C 9.0704 6.114 6.7272 8.4197 6.7405 11.2953 C 6.7537 14.1191 9.1367 16.4248 12.0625 16.3989 C 14.922 16.3989 17.2786 14.0674 17.2653 11.2565 L 17.2653 11.2565 ZM 12.1816 30 C 12.0625 30 11.9434 30 11.8241 30 C 11.7183 29.8964 11.6123 29.8057 11.5065 29.702 C 9.3087 27.5648 7.2832 25.2849 5.4828 22.8239 C 3.9338 20.7124 2.557 18.5104 1.5641 16.0751 C 0.5977 13.6787 0.1475 11.2306 0.8226 8.6917 C 1.9877 4.3394 4.8076 1.5544 9.2294 0.3497 C 9.8781 0.1683 10.5532 0.1166 11.2284 0 C 11.7448 0 12.261 0 12.7905 0 C 12.9626 0.0259 13.1481 0.0518 13.3202 0.0648 C 16.9476 0.5441 19.7939 2.2798 21.7533 5.3109 C 23.1963 7.5518 23.7523 10 23.3949 12.6425 C 23.1566 14.4171 22.5344 16.0621 21.7401 17.6554 C 20.5221 20.1166 18.9598 22.3575 17.2389 24.5078 C 15.6635 26.4508 13.9954 28.2902 12.1816 30 L 12.1816 30 Z" fill="#666666"/>
</svg>