<?xml version="1.0" standalone="no"?>
<!-- Generator: Adobe Fireworks 10, Export SVG Extension by Aaron Beall (http://fireworks.abeall.com) . Version: 0.6.1  -->
<!DOCTYPE svg PUBLIC "-//W3C//DTD SVG 1.1//EN" "http://www.w3.org/Graphics/SVG/1.1/DTD/svg11.dtd">
<svg id="Untitled-P%E1gina%201" viewBox="0 0 33 40" style="background-color:#ffffff00" version="1.1"
	xmlns="http://www.w3.org/2000/svg" xmlns:xlink="http://www.w3.org/1999/xlink" xml:space="preserve"
	x="0px" y="0px" width="33px" height="40px"
>
	<g>
		<path d="M 29.0891 10.2628 C 26.8566 7.9135 24.686 5.6878 22.5155 3.4003 C 22.4535 3.5239 22.4535 3.5239 22.4535 3.5858 C 22.4535 5.1313 22.4535 6.677 22.5155 8.2225 C 22.5775 9.3354 23.5078 10.2009 24.624 10.2628 C 25.2442 10.3246 25.9263 10.2628 26.5465 10.2628 C 27.3527 10.2628 28.1589 10.2628 29.0891 10.2628 L 29.0891 10.2628 ZM 20.531 1.8547 C 20.345 1.8547 20.2209 1.8547 20.1589 1.8547 C 15.4457 1.8547 10.7326 1.8547 6.0194 1.8547 C 3.9109 1.8547 2.4845 3.2767 2.4845 5.3787 C 2.4845 15.085 2.4845 24.7913 2.4845 34.4359 C 2.4845 36.5997 3.9109 38.0216 6.0814 38.0216 C 13.0271 38.0216 19.9108 38.0216 26.8566 38.0216 C 29.0271 38.0216 30.4535 36.5997 30.4535 34.4359 C 30.4535 27.1406 30.4535 19.9073 30.4535 12.6121 C 30.4535 12.4884 30.4535 12.3647 30.4535 12.1793 C 30.2674 12.1793 30.1434 12.1793 29.9573 12.1793 C 28.2829 12.1793 26.6085 12.1793 24.8721 12.1793 C 22.3294 12.1793 20.531 10.3864 20.531 7.8516 C 20.531 6.306 20.531 4.7604 20.531 3.2148 C 20.531 2.7821 20.531 2.3493 20.531 1.8547 L 20.531 1.8547 ZM 0.5 19.9073 C 0.5 15.0232 0.5 10.1391 0.5 5.255 C 0.5 2.7202 2.1744 0.6182 4.655 0.0618 C 4.8411 0 5.0891 0 5.2752 0 C 10.6705 0 16.0039 0 21.3992 0 C 21.8333 0 22.1434 0.1237 22.3914 0.4327 C 24.438 2.5966 26.4845 4.7604 28.593 6.8624 C 29.7093 8.0371 30.8256 9.2117 32.0038 10.3864 C 32.3139 10.6955 32.5 11.0665 32.5 11.561 C 32.5 19.2272 32.5 26.8315 32.5 34.4977 C 32.5 37.2179 30.8876 39.3199 28.3449 39.8763 C 27.9108 39.9382 27.5388 40 27.1046 40 C 20.0969 40 13.0891 40 6.0814 40 C 2.9806 40 0.624 37.7125 0.624 34.5595 C 0.5 29.6754 0.5 24.7913 0.5 19.9073 L 0.5 19.9073 Z" fill="#333333"/>
		<path d="M 15.4457 24.6677 C 15.4457 24.5441 15.4457 24.3586 15.4457 24.2349 C 15.4457 21.0201 15.4457 17.7434 15.4457 14.5286 C 15.4457 14.2195 15.5078 13.9103 15.6938 13.6631 C 15.8798 13.2921 16.3139 13.2303 16.6861 13.3539 C 17.0581 13.4776 17.3062 13.7867 17.3682 14.1577 C 17.3682 14.2813 17.3682 14.4668 17.3682 14.5905 C 17.3682 17.8052 17.3682 21.0819 17.3682 24.2968 C 17.3682 24.4204 17.3682 24.5441 17.3682 24.7295 C 17.4302 24.7913 17.4302 24.7913 17.4922 24.8531 C 17.5543 24.7295 17.6163 24.6058 17.7403 24.4822 C 18.9186 23.1839 20.0969 21.9474 21.2752 20.6492 C 21.5233 20.4019 21.7713 20.2164 22.1434 20.2782 C 22.8876 20.34 23.2597 21.2056 22.8256 21.8238 C 22.7635 21.9474 22.6395 22.0711 22.5155 22.1947 C 20.7791 24.0494 19.0426 25.9042 17.3062 27.7589 C 16.624 28.5008 16.1279 28.5008 15.4457 27.7589 C 13.6473 25.8423 11.8488 23.9258 10.0504 22.0093 C 9.7403 21.7001 9.6163 21.3292 9.8023 20.8964 C 9.9263 20.5255 10.2364 20.34 10.6085 20.2782 C 11.0426 20.2782 11.2907 20.4637 11.5388 20.7109 C 12.717 21.9474 13.8954 23.1839 15.0116 24.4822 C 15.0736 24.5441 15.1357 24.6677 15.1977 24.7913 C 15.3837 24.6677 15.4457 24.6677 15.4457 24.6677 L 15.4457 24.6677 Z" fill="#333333"/>
		<path d="M 16.438 31.3447 C 19.0426 31.3447 21.6473 31.3447 24.1899 31.3447 C 24.376 31.3447 24.562 31.3447 24.7481 31.4065 C 25.1822 31.5302 25.4302 31.9629 25.4302 32.3956 C 25.3682 32.8284 25.0581 33.1994 24.562 33.2612 C 24.438 33.2612 24.3139 33.2612 24.1899 33.2612 C 19.0426 33.2612 13.8954 33.2612 8.748 33.2612 C 8.0039 33.2612 7.5698 32.8903 7.5078 32.3339 C 7.5078 31.7774 7.9419 31.3447 8.5 31.3447 C 9.4922 31.3447 10.5465 31.3447 11.5388 31.3447 C 13.2132 31.3447 14.8256 31.3447 16.438 31.3447 L 16.438 31.3447 Z" fill="#333333"/>
	</g>
</svg>