<?xml version="1.0" standalone="no"?>
<!-- Generator: Adobe Fireworks 10, Export SVG Extension by Aaron Beall (http://fireworks.abeall.com) . Version: 0.6.1  -->
<!DOCTYPE svg PUBLIC "-//W3C//DTD SVG 1.1//EN" "http://www.w3.org/Graphics/SVG/1.1/DTD/svg11.dtd">
<svg id="Untitled-P%E1gina%201" viewBox="0 0 92 93" style="background-color:#ffffff00" version="1.1"
	xmlns="http://www.w3.org/2000/svg" xmlns:xlink="http://www.w3.org/1999/xlink" xml:space="preserve"
	x="0px" y="0px" width="92px" height="93px"
>
	<g>
		<path d="M 48.4 85.3 C 58.2 79.6 67.8 74.1 77.5 68.5 C 77.1 68.3 76.9 68.1 76.6 67.9 C 72.3 65.4 68 63 63.7 60.5 C 60.9 58.9 58.1 57.3 55.3 55.7 C 53.8 54.8 53.4 53.3 54.2 51.9 C 55 50.6 56.5 50.3 58.1 51.2 C 65.2 55.2 72.2 59.3 79.3 63.3 C 79.6 63.5 79.9 63.6 80.3 63.8 C 80.3 52.6 80.3 41.6 80.3 30.5 C 80 30.7 79.7 30.8 79.5 30.9 C 69.4 36.7 59.3 42.5 49.2 48.3 C 48.7 48.6 48.5 49 48.5 49.6 C 48.5 61.2 48.5 72.9 48.5 84.5 C 48.4 84.6 48.4 84.9 48.4 85.3 L 48.4 85.3 ZM 11.3 63.8 C 11.7 63.6 12 63.4 12.3 63.3 C 19.3 59.3 26.2 55.3 33.2 51.3 C 33.5 51.1 33.8 50.9 34.1 50.8 C 35.5 50.2 37.1 50.9 37.6 52.4 C 38.1 53.7 37.5 54.9 36.1 55.8 C 29.1 59.8 22 63.9 15 67.9 C 14.7 68.1 14.4 68.2 14 68.5 C 23.8 74.2 33.4 79.7 43 85.3 C 43 85 43 84.9 43 84.8 C 43 73 43 61.1 43 49.3 C 43 48.7 42.7 48.5 42.3 48.3 C 32.2 42.5 22.1 36.7 12 30.9 C 11.8 30.8 11.5 30.6 11.2 30.5 C 11.3 41.6 11.3 52.6 11.3 63.8 L 11.3 63.8 ZM 14 25.7 C 14.3 25.9 14.6 26.1 14.9 26.2 C 24.9 32 34.9 37.7 44.9 43.5 C 45.5 43.9 46 43.8 46.6 43.5 C 56.6 37.7 66.6 32 76.6 26.2 C 76.9 26 77.1 25.9 77.5 25.7 C 77.2 25.5 77.1 25.4 76.9 25.3 C 66.7 19.4 56.6 13.5 46.4 7.6 C 45.9 7.3 45.5 7.4 45 7.7 C 34.9 13.6 24.8 19.4 14.7 25.2 C 14.5 25.4 14.3 25.6 14 25.7 L 14 25.7 ZM 46.4 1.6 C 55.1 6.6 63.7 11.7 72.4 16.7 C 76.1 18.9 79.9 21.1 83.6 23.2 C 84.9 23.9 85.5 24.9 85.5 26.4 C 85.5 40.2 85.5 54 85.5 67.8 C 85.5 69.3 84.9 70.3 83.6 71 C 71.5 78 59.5 85 47.4 92 C 46.2 92.7 45 92.7 43.8 92 C 31.7 85 19.7 78 7.6 71 C 6.3 70.3 5.7 69.2 5.7 67.7 C 5.7 53.9 5.7 40.1 5.7 26.3 C 5.7 24.8 6.3 23.8 7.6 23.1 C 19.6 16.1 31.7 9.2 43.7 2.2 C 44.1 2 44.5 1.8 44.8 1.5 C 45.5 1.6 46 1.6 46.4 1.6 L 46.4 1.6 Z" fill="#f4b866"/>
		<path d="M 91.2 90.5 C 90.6 92.1 89.4 92.7 87.7 92.6 C 84.5 92.5 81.2 92.6 78 92.6 C 75.9 92.6 74.6 90.7 75.4 88.9 C 75.9 87.8 76.7 87.3 77.9 87.3 C 80.2 87.3 82.5 87.3 84.7 87.3 C 85 87.3 85.3 87.3 85.8 87.3 C 85.8 86.7 85.8 86.1 85.8 85.6 C 85.8 83.6 85.8 81.6 85.8 79.6 C 85.8 77.9 86.5 76.9 87.8 76.6 C 89.1 76.3 90.2 76.9 91 78.4 L 91.1 78.5 C 91.2 82.4 91.2 86.4 91.2 90.5 L 91.2 90.5 Z" fill="#ffffff"/>
		<path d="M 14.3 0.6 L 14.4 0.7 C 15.9 1.4 16.5 2.5 16.2 3.8 C 15.9 5.1 14.8 5.9 13.2 5.9 C 10.7 5.9 8.2 5.9 5.6 5.9 C 5.6 6.9 5.6 7.9 5.6 8.9 C 5.6 10.6 5.6 12.4 5.6 14.1 C 5.6 15.6 4.4 16.7 3 16.7 C 1.6 16.7 0.3 15.6 0.3 14.2 C 0.2 10.5 0.3 6.8 0.3 3.1 C 0.3 1.8 1.2 1.1 2.2 0.6 C 6.2 0.6 10.2 0.6 14.3 0.6 L 14.3 0.6 Z" fill="#ffffff"/>
		<path d="M 91.2 14.6 C 90.8 15.5 90.3 16.3 89.2 16.6 C 87.5 17.1 85.9 15.9 85.8 14 C 85.8 11.7 85.8 9.3 85.8 7 C 85.8 6.7 85.8 6.4 85.8 5.9 C 85.4 5.9 85.1 5.9 84.8 5.9 C 82.6 5.9 80.4 5.9 78.1 5.9 C 76.5 5.9 75.4 5.1 75.1 3.8 C 74.8 2.5 75.4 1.4 76.9 0.7 L 77 0.6 C 81 0.6 85.1 0.6 89.1 0.6 C 90 1.1 90.7 1.7 91.1 2.7 C 91.2 6.7 91.2 10.7 91.2 14.6 L 91.2 14.6 Z" fill="#ffffff"/>
		<path d="M 5.5 87.3 C 8.2 87.3 10.9 87.3 13.5 87.3 C 15.6 87.3 16.8 89.4 15.8 91.2 C 15.3 92.1 14.5 92.6 13.5 92.6 C 9.9 92.6 6.4 92.6 2.8 92.6 C 1.2 92.6 0.1 91.5 0.1 89.9 C 0.1 86.3 0.1 82.8 0.1 79.2 C 0.1 77.6 1.3 76.5 2.7 76.4 C 4.2 76.4 5.4 77.5 5.4 79.2 C 5.6 81.9 5.5 84.5 5.5 87.3 L 5.5 87.3 Z" fill="#ffffff"/>
	</g>
</svg>