<?xml version="1.0" standalone="no"?>
<!-- Generator: Adobe Fireworks 10, Export SVG Extension by Aaron Beall (http://fireworks.abeall.com) . Version: 0.6.1  -->
<!DOCTYPE svg PUBLIC "-//W3C//DTD SVG 1.1//EN" "http://www.w3.org/Graphics/SVG/1.1/DTD/svg11.dtd">
<svg id="Untitled-P%E1gina%201" viewBox="0 0 150 150" style="background-color:#ffffff00" version="1.1"
	xmlns="http://www.w3.org/2000/svg" xmlns:xlink="http://www.w3.org/1999/xlink" xml:space="preserve"
	x="0px" y="0px" width="150px" height="150px"
>
	<g>
		<path d="M 110.597 79.7189 C 93.5821 79.7189 79.7014 93.3786 79.4776 110.3972 C 79.2538 127.192 93.3583 141.2996 110.3731 141.2996 C 127.1641 141.2996 141.2686 127.6398 141.2686 110.6212 C 141.2686 93.8264 127.3881 79.9428 110.597 79.7189 L 110.597 79.7189 ZM 132.3134 8.9572 C 93.806 8.9572 55.9702 8.9572 17.4626 8.9572 C 36.7165 23.5126 55.7463 37.8441 74.7761 52.3995 C 94.0298 37.8441 113.0598 23.5126 132.3134 8.9572 L 132.3134 8.9572 ZM 141.0448 13.4358 C 140.3732 13.8836 139.9253 14.3315 139.4776 14.5554 C 119.1045 29.7826 98.9552 45.2337 78.582 60.461 C 75.8956 62.4763 74.3284 62.4763 71.418 60.461 C 51.0447 45.2337 30.8955 29.7826 10.5224 14.5554 C 10.0746 14.1075 9.403 13.6597 8.7314 13.2119 C 8.7314 13.8836 8.7314 14.1075 8.7314 14.5554 C 8.7314 37.6201 8.7314 60.461 8.7314 83.5257 C 8.7314 86.8846 10.5224 88.4521 13.8807 88.4521 C 34.7015 88.4521 55.2985 88.4521 76.1194 88.4521 C 77.015 88.4521 77.6866 88.2282 78.1344 87.3325 C 81.4926 82.8539 85.5224 79.0471 90.4478 76.136 C 99.8507 70.7617 109.7015 69.4181 120.2239 71.8814 C 128.0597 73.8967 134.5522 77.9275 139.9253 83.9736 C 140.1492 84.1975 140.3732 84.6454 140.597 84.8693 C 140.821 84.8693 140.821 84.6454 141.0448 84.6454 C 141.0448 61.1328 141.0448 37.3962 141.0448 13.4358 L 141.0448 13.4358 ZM 11.6418 0 C 53.9551 0 96.0449 0 138.3582 0 C 138.5821 0 138.806 0.2239 138.806 0.2239 C 142.1642 0.6718 145.0746 2.4632 147.0895 5.1504 C 148.6568 7.1657 149.3284 9.405 150 11.8683 C 150 36.5005 150 61.1328 150 85.765 C 149.3284 88.4521 148.4328 91.1393 146.418 93.1547 C 146.194 93.3786 146.194 94.0504 146.418 94.4982 C 146.8656 95.8418 147.5374 97.1854 147.985 98.753 C 148.6568 101.8879 149.3284 105.0229 150 107.934 C 150 109.7255 150 111.7408 150 113.5322 C 149.5522 115.9955 149.1044 118.4587 148.4328 120.922 C 144.6268 136.3731 130.2985 148.4652 114.403 149.8088 C 102.0895 150.9285 91.3433 147.1217 82.3881 138.6124 C 73.4328 129.8792 69.6268 119.1305 70.7462 106.5905 C 70.9702 103.4554 71.8656 100.5443 72.5374 97.4094 C 72.0895 97.4094 71.418 97.4094 70.9702 97.4094 C 51.9403 97.4094 32.9105 97.4094 13.8807 97.4094 C 5.8208 97.4094 0 91.8111 0 83.9736 C 0 60.461 0 36.9484 0 13.4358 C 0 8.9572 1.791 5.1504 5.3732 2.6871 C 7.1642 1.3436 9.6268 0.8957 11.6418 0 L 11.6418 0 Z" fill="#f2ae51"/>
		<path d="M 105.8955 117.787 C 107.9105 115.7715 109.7015 113.7562 111.7165 111.7408 C 115.9701 107.4862 120.4477 103.2315 124.7015 98.9768 C 127.3881 96.2897 131.4179 97.4094 132.3134 100.7683 C 132.7612 102.3358 132.3134 103.9033 131.194 105.0229 C 123.8059 112.4126 116.4179 119.5784 109.0299 126.968 C 107.0149 128.7595 104.5523 128.7595 102.7612 126.968 C 98.2836 122.7133 94.0298 118.2347 89.7761 113.9801 C 87.985 112.1887 87.985 109.5015 89.7761 107.7101 C 91.5672 105.9186 94.2537 105.9186 96.0449 107.934 C 98.9552 110.8451 102.3135 114.2041 105.8955 117.787 L 105.8955 117.787 Z" fill="#666666"/>
	</g>
</svg>