<?xml version="1.0" standalone="no"?>
<!-- Generator: Adobe Fireworks 10, Export SVG Extension by Aaron Beall (http://fireworks.abeall.com) . Version: 0.6.1  -->
<!DOCTYPE svg PUBLIC "-//W3C//DTD SVG 1.1//EN" "http://www.w3.org/Graphics/SVG/1.1/DTD/svg11.dtd">
<svg id="Untitled-P%E1gina%201" viewBox="0 0 38 35" style="background-color:#ffffff00" version="1.1"
	xmlns="http://www.w3.org/2000/svg" xmlns:xlink="http://www.w3.org/1999/xlink" xml:space="preserve"
	x="0px" y="0px" width="38px" height="35px"
>
	<g>
		<path d="M 28.4717 30.3779 C 28.4717 29.1146 27.413 28.0742 26.1274 28.037 C 24.8418 27.9999 23.7453 29.0774 23.7453 30.3407 C 23.7453 31.6041 24.804 32.6444 26.0895 32.6815 C 27.3751 32.7188 28.4717 31.6412 28.4717 30.3779 L 28.4717 30.3779 ZM 14.2548 30.3407 C 14.2548 29.0774 13.196 28.037 11.9105 27.9999 C 10.6249 27.9999 9.5284 29.0403 9.5284 30.3407 C 9.5284 31.6041 10.587 32.6444 11.8726 32.6815 C 13.1582 32.6815 14.2548 31.6412 14.2548 30.3407 L 14.2548 30.3407 ZM 2.5712 23.2439 C 2.8737 24.0614 3.4408 24.6187 4.1214 25.1018 C 5.407 25.9934 6.9194 26.4766 8.4319 26.848 C 8.5831 26.8853 8.7722 26.8109 8.8856 26.7366 C 9.6796 26.1421 10.587 25.7705 11.608 25.7334 C 13.3094 25.6591 14.6707 26.3279 15.6915 27.6283 C 15.805 27.7399 15.9562 27.8884 16.0696 27.8884 C 17.9224 27.9628 19.8129 27.9999 21.6657 28.037 C 21.8925 28.037 22.0438 27.9628 22.195 27.777 C 23.5562 25.8448 26.014 25.176 28.207 26.2164 C 28.4338 26.3279 28.5851 26.3279 28.7742 26.1792 C 30.6269 25.1389 32.2149 23.8013 33.4249 22.0178 C 35.6558 18.7109 36.2229 15.1439 34.9373 11.354 C 33.7652 7.9357 31.3831 5.4833 28.0936 3.9229 C 24.3124 2.1022 20.3423 1.842 16.3721 3.254 C 11.8348 4.8145 8.7722 7.8242 7.4866 12.4688 C 7.2219 13.4347 7.0707 14.4751 7.1841 15.4783 C 7.2975 16.853 7.2219 18.1907 6.7682 19.4912 C 6.2388 21.0889 5.2557 22.3151 3.592 22.9467 C 3.2518 23.0582 2.9493 23.1324 2.5712 23.2439 L 2.5712 23.2439 ZM 37.9622 16.2214 C 37.8866 16.7788 37.811 17.3362 37.6975 17.8563 C 36.79 22.2036 34.3323 25.4362 30.5891 27.777 C 30.4756 27.8513 30.4 27.8884 30.2488 27.9999 C 31.1184 29.6719 31.1184 31.344 30.0597 32.9417 C 29.3413 34.0192 28.2826 34.688 26.997 34.9109 C 24.2747 35.4312 21.5145 33.499 21.3632 30.3407 C 19.8129 30.3036 18.2627 30.2664 16.6368 30.2292 C 16.599 31.9012 15.9184 33.2761 14.4438 34.2422 C 13.3851 34.9481 12.1751 35.1339 10.9274 34.9109 C 8.394 34.428 6.5035 31.9012 7.2975 29.0032 C 6.6169 28.7802 5.9363 28.5573 5.2557 28.2971 C 3.8189 27.7399 2.4577 26.9967 1.399 25.8448 C 0.4916 24.8044 0.0378 23.6155 0 22.2407 C 0 21.5348 0.4537 21.0518 1.1343 21.0146 C 1.4746 20.9774 1.8527 20.9774 2.1931 20.9031 C 3.4408 20.6431 4.1214 19.8256 4.4995 18.6737 C 4.7642 17.782 4.8776 16.853 4.802 15.9242 C 4.6508 14.1035 4.9532 12.3572 5.5582 10.6481 C 6.8438 6.9696 9.2637 4.22 12.6667 2.288 C 15.9184 0.4302 19.4348 -0.2759 23.1403 0.0957 C 28.2826 0.6158 32.4418 2.9196 35.4288 7.1182 C 36.8657 9.1246 37.6975 11.4283 37.9244 13.8806 C 37.9244 13.9921 37.9622 14.1035 38 14.1779 C 37.9622 14.921 37.9622 15.5526 37.9622 16.2214 L 37.9622 16.2214 Z" fill="#000000"/>
		<path d="M 21.3632 23.3553 C 17.9602 23.3926 15.0488 21.0889 14.2925 17.8563 C 14.1413 17.2246 14.4816 16.6301 15.0865 16.4443 C 15.6915 16.2585 16.3344 16.5559 16.5234 17.1875 C 16.7502 17.9307 17.0527 18.6366 17.5443 19.2682 C 18.9811 21.0889 21.9304 21.6091 23.8965 20.3457 C 24.9552 19.6769 25.6736 18.748 26.014 17.5591 C 26.1652 17.076 26.3164 16.6301 26.8836 16.4443 C 27.3373 16.2958 27.7155 16.3701 28.0557 16.6674 C 28.3961 16.9646 28.5472 17.3733 28.4338 17.8191 C 27.6398 20.7173 25.787 22.5009 22.8378 23.2068 C 22.5353 23.2811 22.2706 23.3182 21.9682 23.3182 C 21.7413 23.3553 21.5522 23.3553 21.3632 23.3553 L 21.3632 23.3553 Z" fill="#000000"/>
		<path d="M 17.015 10.5365 C 17.6577 10.5365 18.2249 11.0568 18.2249 11.7256 C 18.2249 12.3572 17.6956 12.8774 17.0527 12.8774 C 16.41 12.8774 15.8428 12.3572 15.8428 11.6884 C 15.8428 11.0568 16.3721 10.5365 17.015 10.5365 L 17.015 10.5365 Z" fill="#000000"/>
		<path d="M 26.1652 10.5365 C 26.808 10.5365 27.3751 11.0939 27.3373 11.7256 C 27.2995 12.3572 26.7701 12.8774 26.1274 12.8774 C 25.4846 12.8774 24.9174 12.3201 24.9552 11.6884 C 24.993 11.0197 25.5224 10.5365 26.1652 10.5365 L 26.1652 10.5365 Z" fill="#000000"/>
	</g>
</svg>