<?xml version="1.0" standalone="no"?>
<!-- Generator: Adobe Fireworks 10, Export SVG Extension by Aaron Beall (http://fireworks.abeall.com) . Version: 0.6.1  -->
<!DOCTYPE svg PUBLIC "-//W3C//DTD SVG 1.1//EN" "http://www.w3.org/Graphics/SVG/1.1/DTD/svg11.dtd">
<svg id="Untitled-P%E1gina%201" viewBox="0 0 33 35" style="background-color:#ffffff00" version="1.1"
	xmlns="http://www.w3.org/2000/svg" xmlns:xlink="http://www.w3.org/1999/xlink" xml:space="preserve"
	x="0px" y="0px" width="33px" height="35px"
>
	<g>
		<path d="M 15.1649 21.2047 C 15.9366 21.9669 16.6699 22.6909 17.4416 23.453 C 20.7216 26.6923 24.0015 29.9315 27.2814 33.1708 C 27.3972 33.2852 27.5129 33.3994 27.6287 33.3994 C 28.7477 33.59 29.6739 32.8279 29.6739 31.7227 C 29.6739 26.5399 29.6739 21.319 29.6739 16.1362 C 29.6739 16.0601 29.6739 15.9838 29.6353 15.9076 C 27.32 19.1469 25.8151 22.7671 24.7346 26.5399 C 23.6542 22.9196 22.3036 19.4897 20.1427 16.3649 C 20.1041 16.403 20.0656 16.403 20.027 16.4412 C 18.4063 18.0035 16.8242 19.6041 15.1649 21.2047 L 15.1649 21.2047 ZM 2.9327 33.3613 C 10.3415 33.3613 17.7117 33.3613 25.0819 33.3613 C 21.4161 29.741 17.7117 26.0825 14.0073 22.4242 C 10.3415 26.0444 6.6757 29.7029 2.9327 33.3613 L 2.9327 33.3613 ZM 24.7346 21.4714 C 24.8118 21.319 24.8504 21.2428 24.889 21.1665 C 25.5836 19.4897 26.3939 17.9272 27.3586 16.403 C 28.3233 14.8405 29.3266 13.2781 30.2913 11.7156 C 31.1016 10.3818 31.4875 8.9718 31.2946 7.4093 C 30.9473 4.5511 28.7863 2.2646 25.9308 1.7693 C 23.114 1.2738 20.2199 2.6458 18.9079 5.1991 C 17.7889 7.4093 17.9047 9.6196 19.2166 11.7537 C 21.146 14.8787 23.3455 17.8892 24.7346 21.4714 L 24.7346 21.4714 ZM 16.7856 5.7325 C 16.747 5.7325 16.6312 5.7325 16.5541 5.7325 C 12.1937 5.7325 7.7947 5.7325 3.4343 5.7325 C 2.3538 5.7325 1.6592 6.4185 1.6592 7.4856 C 1.6592 15.5265 1.6592 23.6055 1.6592 31.6464 C 1.6592 31.7988 1.6979 31.9513 1.6979 32.1038 C 7.5246 26.3494 13.3513 20.5948 19.2166 14.8024 C 18.715 14.0022 18.2134 13.1637 17.6731 12.3253 C 16.9014 11.0297 16.4769 9.6196 16.5155 8.1334 C 16.5541 7.3331 16.6699 6.5709 16.7856 5.7325 L 16.7856 5.7325 ZM 0 19.566 C 0 15.5646 0 11.5632 0 7.5237 C 0 5.885 0.8489 4.6655 2.3152 4.2463 C 2.7011 4.132 3.1642 4.0939 3.5886 4.0939 C 8.142 4.0939 12.6567 4.0939 17.2101 4.0939 C 17.4802 4.0939 17.6731 4.0177 17.8275 3.7509 C 19.6411 0.9309 23.114 -0.5172 26.3939 0.1687 C 29.751 0.8546 32.2978 3.446 32.8766 6.7996 C 33.2239 8.8574 32.838 10.7629 31.719 12.4778 C 31.4489 12.897 31.3331 13.3542 31.3331 13.8497 C 31.3331 19.7947 31.3331 25.7396 31.3331 31.6464 C 31.3331 33.2471 30.3685 34.5427 28.825 34.8856 C 28.5162 34.9619 28.1689 35 27.8217 35 C 19.7183 35 11.5763 35 3.4729 35 C 1.3892 35 0 33.6281 0 31.5702 C 0 27.6069 0 23.6055 0 19.566 L 0 19.566 Z" fill="#000000"/>
		<path d="M 14.123 10.8391 C 13.66 11.1058 13.197 11.3727 12.7339 11.6394 C 12.0779 10.6105 11.1132 9.9626 9.8784 9.8483 C 9.0681 9.7721 8.2963 9.9244 7.6017 10.3438 C 6.174 11.1821 5.4794 12.897 5.9425 14.4595 C 6.4055 16.0601 7.8719 17.1271 9.5697 17.1271 C 11.1132 17.1271 12.6182 16.0219 12.9654 14.6881 C 11.692 14.6881 10.4186 14.6881 9.1067 14.6881 C 9.1067 14.1165 9.1067 13.6211 9.1067 13.0875 C 11.0361 13.0875 12.9654 13.0875 14.8948 13.0875 C 15.0106 15.9076 13.004 18.3466 10.3415 18.6895 C 7.5246 19.0706 4.9392 17.3938 4.2832 14.7262 C 3.6273 12.0967 5.1321 9.3529 7.7561 8.4764 C 10.4958 7.5237 13.1198 8.9718 14.123 10.8391 L 14.123 10.8391 Z" fill="#000000"/>
		<path d="M 22.6895 8.1715 C 22.6895 9.048 23.4227 9.8102 24.3488 9.8102 C 25.2363 9.8102 26.0081 9.0861 26.0081 8.1715 C 26.0081 7.295 25.2749 6.5328 24.3488 6.5328 C 23.4612 6.5328 22.6895 7.2568 22.6895 8.1715 L 22.6895 8.1715 ZM 27.6287 8.2096 C 27.5901 10.0007 26.1238 11.4489 24.3102 11.4108 C 22.458 11.3727 20.9916 9.8864 21.0302 8.0953 C 21.0688 6.3042 22.5737 4.8561 24.3488 4.8942 C 26.2396 4.9323 27.6673 6.4185 27.6287 8.2096 L 27.6287 8.2096 Z" fill="#000000"/>
	</g>
</svg>