<?xml version="1.0" standalone="no"?>
<!-- Generator: Adobe Fireworks 10, Export SVG Extension by Aaron Beall (http://fireworks.abeall.com) . Version: 0.6.1  -->
<!DOCTYPE svg PUBLIC "-//W3C//DTD SVG 1.1//EN" "http://www.w3.org/Graphics/SVG/1.1/DTD/svg11.dtd">
<svg id="Untitled-P%E1gina%201" viewBox="0 0 280 76" style="background-color:#ffffff00" version="1.1"
	xmlns="http://www.w3.org/2000/svg" xmlns:xlink="http://www.w3.org/1999/xlink" xml:space="preserve"
	x="0px" y="0px" width="280px" height="76px"
>
	<g id="logo-alterno">
		<g>
			<g>
				<g>
					<path id="st0" d="M 109.5276 43.6498 C 108.6622 43.6498 107.9205 43.5257 107.3024 43.3394 L 107.3024 40.6076 C 108.0441 40.7939 108.7241 40.918 109.2803 40.918 C 111.0729 40.918 111.9382 39.8005 111.9382 37.5654 L 111.9382 18.1945 L 115.2141 18.1945 L 115.2141 37.3791 C 115.2141 39.428 114.7196 40.9801 113.7925 42.0356 C 112.7418 43.0911 111.3201 43.6498 109.5276 43.6498 L 109.5276 43.6498 Z" fill="#ffffff"/>
					<path id="st02" d="M 120.777 30.5497 C 120.777 34.0265 122.0751 35.7649 124.6093 35.7649 C 127.1435 35.7649 128.3797 34.0265 128.3797 30.5497 C 128.3797 27.1349 127.0817 25.3965 124.5475 25.3965 C 123.1876 25.3965 122.2605 25.8311 121.6424 26.7003 C 121.0861 27.5695 120.777 28.8733 120.777 30.5497 L 120.777 30.5497 ZM 131.6556 30.5497 C 131.6556 33.0331 131.0375 34.9578 129.8013 36.3237 C 128.5651 37.6896 126.7726 38.3725 124.5475 38.3725 C 123.1259 38.3725 121.8896 38.0621 120.8389 37.4412 C 119.7881 36.8204 118.9227 35.8891 118.3665 34.7094 C 117.8101 33.5298 117.5011 32.1639 117.5011 30.5497 C 117.5011 28.1283 118.1192 26.2036 119.3554 24.8377 C 120.5916 23.4719 122.3841 22.7889 124.6093 22.7889 C 126.7726 22.7889 128.5033 23.4719 129.7395 24.8998 C 131.0375 26.2657 131.6556 28.1283 131.6556 30.5497 L 131.6556 30.5497 Z" fill="#ffffff"/>
					<path id="st03" d="M 141.2362 22.7268 C 141.8543 22.7268 142.4106 22.7889 142.8433 22.851 L 142.5342 25.8311 C 142.1016 25.707 141.6071 25.6449 141.1125 25.6449 C 139.8146 25.6449 138.8256 26.0795 138.0221 26.8866 C 137.2186 27.6937 136.8477 28.8113 136.8477 30.1151 L 136.8477 38 L 133.6335 38 L 133.6335 23.0373 L 136.106 23.0373 L 136.5386 25.707 L 136.7241 25.707 C 137.2186 24.8377 137.8984 24.0927 138.6402 23.596 C 139.4437 23.0373 140.309 22.7268 141.2362 22.7268 L 141.2362 22.7268 Z" fill="#ffffff"/>
					<path id="st04" d="M 146.4283 27.88 C 146.4283 28.8113 146.6755 29.5563 147.17 30.053 C 147.6645 30.5497 148.3444 30.798 149.2715 30.798 C 151.1259 30.798 152.053 29.8046 152.053 27.8179 C 152.053 26.8245 151.8057 26.0795 151.3731 25.5828 C 150.9404 25.024 150.1987 24.7757 149.2715 24.7757 C 148.3444 24.7757 147.6645 25.024 147.17 25.5828 C 146.6755 26.1416 146.4283 26.8866 146.4283 27.88 L 146.4283 27.88 ZM 145.0684 40.4214 C 145.0684 41.1043 145.3775 41.6631 145.9956 42.0356 C 146.6137 42.4081 147.479 42.5944 148.5916 42.5944 C 150.3223 42.5944 151.6203 42.346 152.4857 41.8493 C 153.351 41.3527 153.7836 40.6697 153.7836 39.8626 C 153.7836 39.1796 153.5364 38.745 153.1038 38.4967 C 152.6711 38.2483 151.744 38.0621 150.5078 38.0621 L 148.0971 38.0621 C 147.17 38.0621 146.4901 38.2483 145.9338 38.6829 C 145.3157 39.1175 145.0684 39.6763 145.0684 40.4214 L 145.0684 40.4214 ZM 156.8124 23.0373 L 156.8124 24.7757 L 154.2781 25.2724 C 154.5254 25.5828 154.7108 25.9553 154.8344 26.452 C 154.9581 26.8866 155.0817 27.3833 155.0817 27.9421 C 155.0817 29.4942 154.5254 30.7359 153.4746 31.6051 C 152.4238 32.4743 150.9404 32.9089 149.0861 32.9089 C 148.5916 32.9089 148.1589 32.8469 147.7881 32.7848 C 147.1082 33.2194 146.7373 33.7161 146.7373 34.2748 C 146.7373 34.6474 146.9227 34.8957 147.2318 35.082 C 147.5408 35.2682 148.1589 35.3303 149.0243 35.3303 L 151.6203 35.3303 C 153.2892 35.3303 154.5254 35.7028 155.3907 36.3858 C 156.256 37.0687 156.6887 38.1242 156.6887 39.428 C 156.6887 41.1043 156.0089 42.4702 154.5872 43.4015 C 153.1655 44.3328 151.1876 44.7674 148.5298 44.7674 C 146.4901 44.7674 144.9448 44.3949 143.8322 43.6498 C 142.7814 42.9048 142.2252 41.9114 142.2252 40.5455 C 142.2252 39.6142 142.5342 38.8692 143.0905 38.1863 C 143.6468 37.5654 144.5121 37.1308 145.5629 36.8824 C 145.1302 36.6962 144.7594 36.3858 144.5121 36.0132 C 144.2649 35.5786 144.0795 35.2061 144.0795 34.7094 C 144.0795 34.1507 144.2649 33.654 144.574 33.2815 C 144.883 32.9089 145.3775 32.5364 145.9956 32.1018 C 145.1921 31.7914 144.574 31.2326 144.0795 30.4876 C 143.585 29.7425 143.3378 28.8733 143.3378 27.8179 C 143.3378 26.2036 143.8322 24.8998 144.883 24.0306 C 145.9338 23.1614 147.3554 22.6647 149.2715 22.6647 C 149.7042 22.6647 150.1369 22.6647 150.6313 22.7268 C 151.1259 22.7889 151.4349 22.851 151.6821 22.9131 L 156.8124 22.9131 L 156.8124 23.0373 Z" fill="#ffffff"/>
					<path id="st05" d="M 163.6733 25.1482 C 162.6843 25.1482 161.8808 25.4586 161.2627 26.1416 C 160.6446 26.7624 160.2737 27.7558 160.1501 28.9354 L 166.9492 28.9354 C 166.9492 27.6937 166.6401 26.7624 166.0839 26.1416 C 165.4658 25.5207 164.6623 25.1482 163.6733 25.1482 L 163.6733 25.1482 ZM 164.2296 38.3725 C 161.8808 38.3725 160.0883 37.6896 158.7903 36.3237 C 157.4922 34.9578 156.8124 33.0952 156.8124 30.6738 C 156.8124 28.1904 157.4305 26.2657 158.6667 24.8998 C 159.9029 23.4719 161.5718 22.7889 163.6733 22.7889 C 165.6512 22.7889 167.1965 23.4098 168.3708 24.5894 C 169.5452 25.769 170.1016 27.4454 170.1016 29.5563 L 170.1016 31.2947 L 160.0883 31.2947 C 160.1501 32.7848 160.521 33.9023 161.2627 34.6474 C 162.0044 35.4545 163.0552 35.827 164.415 35.827 C 165.2804 35.827 166.1457 35.7649 166.8874 35.5786 C 167.6292 35.3924 168.4944 35.144 169.3598 34.7715 L 169.3598 37.3791 C 168.5563 37.7517 167.8146 38 167.011 38.1863 C 166.1457 38.2483 165.2804 38.3725 164.2296 38.3725 L 164.2296 38.3725 Z" fill="#ffffff"/>
				</g>
				<g>
					<path id="st06" d="M 182.0927 27.2591 L 189.3864 27.2591 L 189.3864 37.255 C 188.2119 37.6275 187.0375 37.9379 185.9249 38.0621 C 184.8124 38.2483 183.6379 38.3104 182.34 38.3104 C 179.3112 38.3104 177.0243 37.4412 175.4172 35.6407 C 173.8102 33.8402 173.0067 31.3568 173.0067 28.0662 C 173.0067 24.8377 173.9338 22.3543 175.7263 20.5538 C 177.5806 18.7533 180.1148 17.822 183.3289 17.822 C 185.3687 17.822 187.3466 18.1945 189.2009 19.0017 L 188.0883 21.7334 C 186.4813 20.9884 184.8741 20.6159 183.2671 20.6159 C 181.1655 20.6159 179.4967 21.2988 178.2605 22.6026 C 177.0243 23.9065 176.4062 25.769 176.4062 28.0662 C 176.4062 30.4876 176.9625 32.3502 178.075 33.5919 C 179.1876 34.8336 180.7947 35.5166 182.8344 35.5166 C 183.8852 35.5166 184.9978 35.3924 186.1722 35.144 L 186.1722 29.9909 L 182.0927 29.9909 L 182.0927 27.2591 L 182.0927 27.2591 Z" fill="#ffffff"/>
					<path id="st07" d="M 194.6402 30.5497 C 194.6402 34.0265 195.9382 35.7649 198.4724 35.7649 C 201.0067 35.7649 202.2429 34.0265 202.2429 30.5497 C 202.2429 27.1349 200.9448 25.3965 198.4106 25.3965 C 197.0508 25.3965 196.1236 25.8311 195.5055 26.7003 C 194.9492 27.5695 194.6402 28.8733 194.6402 30.5497 L 194.6402 30.5497 ZM 205.5806 30.5497 C 205.5806 33.0331 204.9625 34.9578 203.7263 36.3237 C 202.4901 37.6896 200.6976 38.3725 198.4724 38.3725 C 197.0508 38.3725 195.8146 38.0621 194.7638 37.4412 C 193.713 36.8204 192.8477 35.8891 192.2914 34.7094 C 191.7351 33.5298 191.426 32.1639 191.426 30.5497 C 191.426 28.1283 192.0441 26.2036 193.2803 24.8377 C 194.5165 23.4719 196.309 22.7889 198.5342 22.7889 C 200.6976 22.7889 202.4283 23.4719 203.6644 24.8998 C 204.9625 26.2657 205.5806 28.1283 205.5806 30.5497 L 205.5806 30.5497 Z" fill="#ffffff"/>
					<path id="st08" d="M 220.7241 38.0621 L 217.5099 38.0621 L 217.5099 28.8113 C 217.5099 27.6316 217.2627 26.7624 216.83 26.2036 C 216.3355 25.6449 215.6556 25.3344 214.6049 25.3344 C 213.2451 25.3344 212.2561 25.707 211.638 26.5141 C 211.0199 27.3212 210.7108 28.625 210.7108 30.5497 L 210.7108 38.0621 L 207.4967 38.0621 L 207.4967 23.0373 L 209.9691 23.0373 L 210.4018 25.024 L 210.5872 25.024 C 211.0199 24.279 211.6998 23.7823 212.5033 23.3477 C 213.3068 22.9752 214.2339 22.7889 215.2847 22.7889 C 218.8698 22.7889 220.6622 24.6515 220.6622 28.3146 L 220.6622 38.0621 L 220.7241 38.0621 Z" fill="#ffffff"/>
					<path id="st09" d="M 233.3951 38.0621 L 222.0221 38.0621 L 222.0221 36.0753 L 229.6247 25.4586 L 222.5165 25.4586 L 222.5165 23.0373 L 233.2097 23.0373 L 233.2097 25.2724 L 225.7925 35.6407 L 233.3951 35.6407 L 233.3951 38.0621 L 233.3951 38.0621 Z" fill="#ffffff"/>
					<path id="st010" d="M 238.8962 21.1747 L 238.8962 20.8642 C 239.3907 20.2434 239.947 19.4983 240.5033 18.7533 C 241.0596 17.9462 241.4922 17.3253 241.8013 16.7666 L 245.5099 16.7666 L 245.5099 17.077 C 245.0154 17.6358 244.3355 18.3187 243.4084 19.25 C 242.4812 20.1192 241.6777 20.8022 241.0596 21.2988 L 238.8962 21.2988 L 238.8962 21.1747 ZM 239.8852 35.8891 C 241.0596 35.8891 241.9868 35.5786 242.6666 34.8957 C 243.3466 34.2748 243.7174 33.3435 243.7174 32.1639 L 243.7174 30.9222 L 241.8013 30.9843 C 240.3179 31.0464 239.2053 31.2947 238.5254 31.7293 C 237.8455 32.1639 237.4746 32.8469 237.4746 33.7781 C 237.4746 34.4611 237.66 34.9578 238.0927 35.3303 C 238.5254 35.7028 239.0817 35.8891 239.8852 35.8891 L 239.8852 35.8891 ZM 244.6446 38.0621 L 244.0265 35.9512 L 243.9028 35.9512 C 243.1611 36.8824 242.4812 37.5033 241.7395 37.8137 C 240.9978 38.1242 240.0707 38.3104 238.8962 38.3104 C 237.4128 38.3104 236.3002 37.9379 235.4349 37.1308 C 234.6313 36.3237 234.1987 35.2061 234.1987 33.7161 C 234.1987 32.1639 234.7549 30.9843 235.9294 30.1772 C 237.1038 29.37 238.8345 28.9354 241.1832 28.8733 L 243.7792 28.8113 L 243.7792 28.0041 C 243.7792 27.0729 243.532 26.3278 243.0993 25.8311 C 242.6666 25.3344 241.9868 25.0861 240.9978 25.0861 C 240.2561 25.0861 239.5143 25.2103 238.7726 25.3965 C 238.0927 25.6449 237.4128 25.8932 236.7329 26.2036 L 235.6821 23.9065 C 236.4857 23.4719 237.4128 23.1614 238.34 22.9131 C 239.3289 22.6647 240.1942 22.6026 241.0596 22.6026 C 242.9757 22.6026 244.3973 23.0373 245.3863 23.8444 C 246.3752 24.6515 246.8698 26.0174 246.8698 27.7558 L 246.8698 37.8758 L 244.6446 37.8758 L 244.6446 38.0621 Z" fill="#ffffff"/>
					<path id="st011" d="M 252.8035 38.0621 L 249.5894 38.0621 L 249.5894 16.8907 L 252.8035 16.8907 L 252.8035 38.0621 L 252.8035 38.0621 Z" fill="#ffffff"/>
					<path id="st012" d="M 261.7042 25.1482 C 260.7152 25.1482 259.9117 25.4586 259.2936 26.1416 C 258.6755 26.7624 258.3046 27.7558 258.181 28.9354 L 264.9802 28.9354 C 264.9802 27.6937 264.6711 26.7624 264.1148 26.1416 C 263.4967 25.5207 262.6932 25.1482 261.7042 25.1482 L 261.7042 25.1482 ZM 262.2605 38.3725 C 259.9117 38.3725 258.1192 37.6896 256.8212 36.3237 C 255.5232 34.9578 254.8433 33.0952 254.8433 30.6738 C 254.8433 28.1904 255.4614 26.2657 256.6976 24.8998 C 257.9338 23.4719 259.6027 22.7889 261.7042 22.7889 C 263.6821 22.7889 265.2274 23.4098 266.4017 24.5894 C 267.5762 25.769 268.1324 27.4454 268.1324 29.5563 L 268.1324 31.2947 L 258.1192 31.2947 C 258.181 32.7848 258.5519 33.9023 259.2936 34.6474 C 260.0353 35.4545 261.0861 35.827 262.4459 35.827 C 263.3113 35.827 264.1766 35.7649 264.9183 35.5786 C 265.66 35.3924 266.5254 35.144 267.3907 34.7715 L 267.3907 37.3791 C 266.5872 37.7517 265.8455 38 265.0419 38.1863 C 264.1766 38.2483 263.3113 38.3725 262.2605 38.3725 L 262.2605 38.3725 Z" fill="#ffffff"/>
					<path id="st013" d="M 280 38.0621 L 268.6269 38.0621 L 268.6269 36.0753 L 276.2296 25.4586 L 269.1214 25.4586 L 269.1214 23.0373 L 279.8146 23.0373 L 279.8146 25.2724 L 272.3973 35.6407 L 280 35.6407 L 280 38.0621 L 280 38.0621 Z" fill="#ffffff"/>
				</g>
			</g>
			<g>
				<path id="st014" d="M 110.3311 57.9296 L 108.5386 57.9296 L 108.5386 50.4793 L 110.3311 50.4793 L 110.3311 57.9296 L 110.3311 57.9296 ZM 108.4768 48.4926 C 108.4768 48.1821 108.5386 47.9959 108.7241 47.8717 C 108.9095 47.7475 109.1567 47.6233 109.4658 47.6233 C 109.7748 47.6233 110.0221 47.6854 110.2075 47.8717 C 110.3929 47.9959 110.4548 48.2442 110.4548 48.4926 C 110.4548 48.7409 110.3929 48.9892 110.2075 49.1134 C 110.0221 49.2376 109.7748 49.3618 109.4658 49.3618 C 109.1567 49.3618 108.9095 49.2997 108.7241 49.1134 C 108.5386 48.9892 108.4768 48.803 108.4768 48.4926 L 108.4768 48.4926 Z" fill="#ffffff"/>
				<path id="st015" d="M 120.468 57.9296 L 118.6755 57.9296 L 118.6755 53.3353 C 118.6755 52.7765 118.5519 52.3419 118.3046 52.0315 C 118.0574 51.721 117.6247 51.5969 117.0684 51.5969 C 116.3267 51.5969 115.7704 51.7831 115.3995 52.2177 C 115.0287 52.5902 114.8433 53.2732 114.8433 54.2045 L 114.8433 57.9296 L 113.0508 57.9296 L 113.0508 50.4793 L 114.4724 50.4793 L 114.7196 51.4727 L 114.7814 51.4727 C 115.0287 51.1002 115.3995 50.8518 115.8322 50.6656 C 116.3267 50.4793 116.8212 50.3551 117.3775 50.3551 C 119.4172 50.3551 120.4062 51.2864 120.4062 53.0869 L 120.4062 57.9296 L 120.468 57.9296 Z" fill="#ffffff"/>
				<path id="st016" d="M 124.4238 52.9007 C 124.4238 53.3973 124.5475 53.7078 124.8565 53.9561 C 125.1038 54.2045 125.5364 54.3286 126.0309 54.3286 C 127.0817 54.3286 127.5762 53.8319 127.5762 52.8386 C 127.5762 52.3419 127.4525 51.9694 127.2053 51.721 C 126.9581 51.4727 126.5872 51.3485 126.0309 51.3485 C 125.5364 51.3485 125.1038 51.4727 124.8565 51.721 C 124.5475 52.0315 124.4238 52.404 124.4238 52.9007 L 124.4238 52.9007 ZM 123.6203 59.0472 C 123.6203 59.3576 123.8057 59.6681 124.1148 59.8543 C 124.4857 60.0406 124.9802 60.1026 125.5983 60.1026 C 126.5872 60.1026 127.3289 59.9785 127.7616 59.7301 C 128.256 59.4818 128.5033 59.1714 128.5033 58.7368 C 128.5033 58.4263 128.3797 58.178 128.1324 58.0538 C 127.8852 57.9296 127.3907 57.8675 126.649 57.8675 L 125.2892 57.8675 C 124.7947 57.8675 124.3621 57.9917 124.053 58.178 C 123.8057 58.4263 123.6203 58.7368 123.6203 59.0472 L 123.6203 59.0472 ZM 130.234 50.4793 L 130.234 51.3485 L 128.8124 51.5969 C 128.936 51.7831 129.0596 51.9694 129.1214 52.1556 C 129.1832 52.404 129.245 52.6523 129.245 52.9007 C 129.245 53.6457 128.936 54.2666 128.3179 54.7012 C 127.6998 55.1358 126.8962 55.3841 125.8455 55.3841 C 125.5983 55.3841 125.351 55.3841 125.1038 55.322 C 124.7329 55.5083 124.5475 55.7566 124.5475 56.0671 C 124.5475 56.2533 124.6093 56.3775 124.7947 56.4396 C 124.9802 56.5017 125.2892 56.5637 125.7837 56.5637 L 127.2672 56.5637 C 128.1943 56.5637 128.8741 56.75 129.3687 57.0604 C 129.8631 57.3709 130.1104 57.9296 130.1104 58.5505 C 130.1104 59.4197 129.7395 60.0406 128.936 60.4752 C 128.1324 60.9098 127.0198 61.1581 125.5364 61.1581 C 124.3621 61.1581 123.4967 60.9718 122.8786 60.5993 C 122.2605 60.2268 121.9514 59.7301 121.9514 59.0472 C 121.9514 58.6126 122.1368 58.178 122.4459 57.8675 C 122.7549 57.5571 123.2495 57.3088 123.8057 57.2467 C 123.5585 57.1846 123.373 56.9983 123.1876 56.8121 C 123.0022 56.6258 122.9404 56.3775 122.9404 56.1912 C 122.9404 55.9429 123.0022 55.6945 123.1876 55.5083 C 123.373 55.322 123.6203 55.1358 123.9911 54.9495 C 123.5585 54.7632 123.1876 54.5149 122.9404 54.1424 C 122.6932 53.7699 122.5078 53.3353 122.5078 52.8386 C 122.5078 52.0315 122.8168 51.4106 123.373 50.976 C 123.9294 50.5414 124.7947 50.293 125.8455 50.293 C 126.0927 50.293 126.34 50.293 126.5872 50.3551 C 126.8345 50.3551 127.0198 50.4172 127.2053 50.4172 L 130.234 50.4172 L 130.234 50.4793 Z" fill="#ffffff"/>
				<path id="st017" d="M 135.3024 51.5348 C 134.7462 51.5348 134.2516 51.721 133.9426 52.0315 C 133.5717 52.3419 133.3863 52.8386 133.3245 53.3973 L 137.1567 53.3973 C 137.1567 52.7765 136.9713 52.3419 136.6622 52.0315 C 136.3532 51.721 135.8587 51.5348 135.3024 51.5348 L 135.3024 51.5348 ZM 135.6733 58.0538 C 134.3753 58.0538 133.3245 57.7434 132.5828 57.0604 C 131.8411 56.3775 131.4702 55.4462 131.4702 54.2666 C 131.4702 53.0248 131.8411 52.0935 132.521 51.4106 C 133.2009 50.7276 134.1281 50.3551 135.3643 50.3551 C 136.4768 50.3551 137.3422 50.6656 138.0221 51.2243 C 138.6402 51.8452 139.011 52.6523 139.011 53.7078 L 139.011 54.577 L 133.3863 54.577 C 133.3863 55.322 133.6335 55.8808 134.0662 56.2533 C 134.4989 56.6258 135.0552 56.8121 135.7969 56.8121 C 136.2914 56.8121 136.7859 56.75 137.2186 56.6879 C 137.6512 56.6258 138.0839 56.4396 138.5784 56.2533 L 138.5784 57.5571 C 138.1457 57.7434 137.713 57.8675 137.2803 57.9296 C 136.8477 57.9917 136.2296 58.0538 135.6733 58.0538 L 135.6733 58.0538 Z" fill="#ffffff"/>
				<path id="st018" d="M 148.5298 57.9296 L 146.7373 57.9296 L 146.7373 53.3353 C 146.7373 52.7765 146.6137 52.3419 146.3665 52.0315 C 146.1192 51.721 145.6865 51.5969 145.1302 51.5969 C 144.3885 51.5969 143.8322 51.7831 143.4614 52.2177 C 143.0905 52.5902 142.9051 53.2732 142.9051 54.2045 L 142.9051 57.9296 L 141.1125 57.9296 L 141.1125 50.4793 L 142.5342 50.4793 L 142.7814 51.4727 L 142.8433 51.4727 C 143.0905 51.1002 143.4614 50.8518 143.894 50.6656 C 144.3885 50.4793 144.883 50.3551 145.4393 50.3551 C 147.479 50.3551 148.468 51.2864 148.468 53.0869 L 148.468 57.9296 L 148.5298 57.9296 Z" fill="#ffffff"/>
				<path id="st019" d="M 152.9801 57.9296 L 151.1876 57.9296 L 151.1876 50.4793 L 152.9801 50.4793 L 152.9801 57.9296 L 152.9801 57.9296 ZM 151.064 48.4926 C 151.064 48.1821 151.1259 47.9959 151.3112 47.8717 C 151.4966 47.7475 151.744 47.6233 152.053 47.6233 C 152.362 47.6233 152.6093 47.6854 152.7947 47.8717 C 152.9801 47.9959 153.0419 48.2442 153.0419 48.4926 C 153.0419 48.7409 152.9801 48.9892 152.7947 49.1134 C 152.6093 49.2376 152.362 49.3618 152.053 49.3618 C 151.744 49.3618 151.4966 49.2997 151.3112 49.1134 C 151.1876 48.9892 151.064 48.803 151.064 48.4926 L 151.064 48.4926 Z" fill="#ffffff"/>
				<path id="st020" d="M 159.0375 51.5348 C 158.4813 51.5348 157.9868 51.721 157.6777 52.0315 C 157.3068 52.3419 157.1214 52.8386 157.0596 53.3973 L 160.8918 53.3973 C 160.8918 52.7765 160.7064 52.3419 160.3973 52.0315 C 160.0265 51.721 159.5938 51.5348 159.0375 51.5348 L 159.0375 51.5348 ZM 159.3466 58.0538 C 158.0486 58.0538 156.9978 57.7434 156.256 57.0604 C 155.5143 56.3775 155.1435 55.4462 155.1435 54.2666 C 155.1435 53.0248 155.5143 52.0935 156.1943 51.4106 C 156.8741 50.7276 157.8013 50.3551 159.0375 50.3551 C 160.1501 50.3551 161.0154 50.6656 161.6954 51.2243 C 162.3135 51.8452 162.6843 52.6523 162.6843 53.7078 L 162.6843 54.577 L 156.9978 54.577 C 156.9978 55.322 157.2451 55.8808 157.6777 56.2533 C 158.1104 56.6258 158.6667 56.8121 159.4084 56.8121 C 159.9029 56.8121 160.3973 56.75 160.83 56.6879 C 161.2627 56.6258 161.6954 56.4396 162.1899 56.2533 L 162.1899 57.5571 C 161.7572 57.7434 161.3245 57.8675 160.8918 57.9296 C 160.4592 57.9917 159.9647 58.0538 159.3466 58.0538 L 159.3466 58.0538 Z" fill="#ffffff"/>
				<path id="st021" d="M 169.1125 50.3551 C 169.4835 50.3551 169.7925 50.3551 169.9779 50.4172 L 169.7925 51.9073 C 169.5452 51.8452 169.298 51.8452 168.989 51.8452 C 168.2473 51.8452 167.6909 52.0315 167.2582 52.4661 C 166.8256 52.9007 166.5784 53.3973 166.5784 54.0803 L 166.5784 57.9917 L 164.7858 57.9917 L 164.7858 50.5414 L 166.2075 50.5414 L 166.4547 51.8452 L 166.5165 51.8452 C 166.8256 51.4106 167.1346 51.0381 167.6292 50.7897 C 168.1236 50.4793 168.6181 50.3551 169.1125 50.3551 L 169.1125 50.3551 Z" fill="#ffffff"/>
				<path id="st022" d="M 173.5011 57.9296 L 171.7086 57.9296 L 171.7086 50.4793 L 173.5011 50.4793 L 173.5011 57.9296 L 173.5011 57.9296 ZM 171.6468 49.548 L 171.6468 49.3618 C 171.9559 49.0513 172.2649 48.6788 172.5121 48.3063 C 172.8212 47.9338 173.0684 47.5613 173.2538 47.3129 L 175.3554 47.3129 L 175.3554 47.4371 C 175.1082 47.6854 174.6755 48.058 174.181 48.4926 C 173.6248 48.9272 173.1921 49.2376 172.8212 49.4859 L 171.6468 49.4859 L 171.6468 49.548 Z" fill="#ffffff"/>
				<path id="st023" d="M 178.8168 56.8121 C 179.4967 56.8121 179.9911 56.6258 180.362 56.3154 C 180.7329 56.005 180.9801 55.5704 180.9801 54.9495 L 180.9801 54.3286 L 179.8676 54.3907 C 179.0022 54.3907 178.3841 54.5149 178.0132 54.7632 C 177.6424 55.0116 177.4569 55.322 177.4569 55.7566 C 177.4569 56.0671 177.5806 56.3154 177.766 56.5017 C 178.075 56.75 178.3841 56.8121 178.8168 56.8121 L 178.8168 56.8121 ZM 181.4746 57.9296 L 181.1038 56.8742 L 181.1038 56.8742 C 180.6711 57.3088 180.3002 57.6192 179.8676 57.8055 C 179.4349 57.9917 178.9404 58.0538 178.2605 58.0538 C 177.4569 58.0538 176.777 57.8675 176.3444 57.4329 C 175.8499 57.0604 175.6645 56.5017 175.6645 55.7566 C 175.6645 55.0116 175.9735 54.3907 176.6534 54.0182 C 177.2715 53.6457 178.2605 53.3973 179.6203 53.3973 L 181.1038 53.3353 L 181.1038 52.9627 C 181.1038 52.4661 180.9801 52.1556 180.7329 51.9073 C 180.4857 51.6589 180.1148 51.5348 179.5585 51.5348 C 179.1258 51.5348 178.6931 51.5969 178.3223 51.721 C 177.9515 51.8452 177.5188 51.9694 177.2097 52.0935 L 176.6534 50.976 C 177.0861 50.7897 177.6424 50.6035 178.1368 50.4793 C 178.6931 50.3551 179.1876 50.293 179.6821 50.293 C 180.7329 50.293 181.5364 50.4793 182.0927 50.9139 C 182.649 51.3485 182.8962 51.9694 182.8962 52.8386 L 182.8962 57.8675 L 181.4746 57.8675 L 181.4746 57.9296 Z" fill="#ffffff"/>
			</g>
		</g>
		<g>
			<path id="st024" d="M 45.1832 36.5099 C 45.1832 38.2483 46.543 39.6142 48.2737 39.6142 C 50.0045 39.6142 51.3642 38.1863 51.3642 36.5099 C 51.3642 34.7715 50.0045 33.4056 48.2737 33.4056 C 46.6049 33.4056 45.1832 34.7715 45.1832 36.5099 L 45.1832 36.5099 Z" fill="#ffffff"/>
			<path id="st025" d="M 93.0243 0.5 L 48.3356 0.5 L 3.585 0.5 C 1.6071 0.5 0 2.1142 0 4.101 L 0 27.88 C 0 28.8113 0.8035 29.6184 1.7307 29.6184 C 2.6578 29.6184 3.4614 28.8113 3.4614 27.88 L 3.4614 4.101 C 3.4614 4.0389 3.5232 3.9768 3.585 3.9768 L 48.3356 3.9768 L 93.0861 3.9768 C 93.1479 3.9768 93.2097 4.0389 93.2097 4.101 L 93.2097 27.88 C 93.2097 28.8113 94.0132 29.6184 94.9404 29.6184 C 95.8676 29.6184 96.6711 28.8113 96.6711 27.88 L 96.6711 4.101 C 96.6093 2.1142 95.0022 0.5 93.0243 0.5 L 93.0243 0.5 Z" fill="#ffffff"/>
			<path id="st026" d="M 54.8874 6.7086 L 48.3356 6.7086 L 41.7836 6.7086 C 39.8057 6.7086 38.1987 8.3228 38.1987 10.3096 L 38.1987 65.4421 C 38.1987 65.5041 38.1369 65.5662 38.075 65.5662 L 10.0751 65.5662 C 10.0132 65.5662 9.9514 65.5041 9.9514 65.4421 L 9.9514 42.8427 C 9.9514 42.7806 10.0132 42.7185 10.0751 42.7185 L 21.2009 42.7185 L 21.2627 42.7185 C 22.1899 42.6565 22.8698 41.9114 22.8698 40.9801 C 22.8698 40.0488 22.1899 39.3038 21.2627 39.2417 C 21.2009 39.2417 21.2009 39.2417 21.1391 39.2417 L 9.0243 39.2417 C 7.3554 39.2417 6.4901 40.1109 6.4901 41.7873 L 6.4901 66.4354 C 6.4901 68.1118 7.3554 68.981 9.0243 68.981 L 39.1258 68.981 C 40.7947 68.981 41.66 68.1118 41.66 66.4354 L 41.66 10.3096 C 41.66 10.2475 41.7219 10.1854 41.7836 10.1854 L 48.3356 10.1854 L 54.8874 10.1854 C 54.9492 10.1854 55.011 10.2475 55.011 10.3096 L 55.011 66.4354 C 55.011 68.1118 55.8764 68.981 57.5452 68.981 L 87.6468 68.981 C 89.3157 68.981 90.181 68.1118 90.181 66.4354 L 90.181 41.7873 C 90.181 40.1109 89.3157 39.2417 87.6468 39.2417 L 75.4702 39.2417 C 75.4084 39.2417 75.4084 39.2417 75.3466 39.2417 C 74.4194 39.3038 73.7395 40.0488 73.7395 40.9801 C 73.7395 41.9114 74.4194 42.6565 75.3466 42.7185 L 75.4084 42.7185 L 86.5342 42.7185 C 86.596 42.7185 86.6578 42.7806 86.6578 42.8427 L 86.6578 65.4421 C 86.6578 65.5041 86.596 65.5662 86.5342 65.5662 L 58.596 65.5662 C 58.5342 65.5662 58.4724 65.5041 58.4724 65.4421 L 58.4724 10.3096 C 58.4724 8.3228 56.8654 6.7086 54.8874 6.7086 L 54.8874 6.7086 Z" fill="#ffffff"/>
			<path id="st027" d="M 93.0243 32.7227 L 75.4084 32.7227 C 74.4813 32.7227 73.6777 33.5298 73.6777 34.4611 C 73.6777 35.3924 74.4194 36.1995 75.4084 36.1995 L 91.5408 36.1995 C 92.6534 36.1995 93.1479 36.4478 93.1479 37.8137 L 93.1479 70.3469 C 93.1479 71.4644 92.9006 71.9611 91.5408 71.9611 L 48.2737 71.9611 L 5.0066 71.9611 C 3.6468 71.9611 3.3995 71.4644 3.3995 70.3469 L 3.3995 37.8137 C 3.3995 36.3858 3.894 36.1995 5.0066 36.1995 L 21.1391 36.1995 C 22.0662 36.1995 22.808 35.3924 22.808 34.4611 C 22.808 33.5298 22.0662 32.7227 21.0773 32.7227 L 3.585 32.7227 C 1.6071 32.7227 0 34.3369 0 36.3237 L 0 71.899 C 0 73.7616 1.3598 75.3137 3.2141 75.5 C 3.3378 75.5 3.4614 75.5 3.585 75.5 L 48.3356 75.5 L 93.0861 75.5 C 93.2097 75.5 93.3333 75.5 93.457 75.5 C 95.3113 75.3137 96.6711 73.7616 96.6711 71.899 L 96.6711 36.3237 C 96.6093 34.3369 95.0022 32.7227 93.0243 32.7227 L 93.0243 32.7227 Z" fill="#ffffff"/>
		</g>
	</g>
</svg>