<?xml version="1.0" standalone="no"?>
<!-- Generator: Adobe Fireworks 10, Export SVG Extension by Aaron Beall (http://fireworks.abeall.com) . Version: 0.6.1  -->
<!DOCTYPE svg PUBLIC "-//W3C//DTD SVG 1.1//EN" "http://www.w3.org/Graphics/SVG/1.1/DTD/svg11.dtd">
<svg id="Untitled-P%E1gina%201" viewBox="0 0 160 42" style="background-color:#ffffff00" version="1.1"
	xmlns="http://www.w3.org/2000/svg" xmlns:xlink="http://www.w3.org/1999/xlink" xml:space="preserve"
	x="0px" y="0px" width="160px" height="42px"
>
	<g id="logo-alterno">
		<g>
			<g>
				<g>
					<path id="st0" d="M 62.5872 24.4905 C 62.0927 24.4905 61.6688 24.4199 61.3157 24.3142 L 61.3157 22.7639 C 61.7395 22.8696 62.1281 22.9399 62.4459 22.9399 C 63.4702 22.9399 63.9647 22.3057 63.9647 21.0371 L 63.9647 10.043 L 65.8367 10.043 L 65.8367 20.9314 C 65.8367 22.0942 65.5541 22.9753 65.0243 23.5742 C 64.4238 24.1733 63.6115 24.4905 62.5872 24.4905 L 62.5872 24.4905 Z" fill="#a0a1a2"/>
					<path id="st02" d="M 69.0155 17.0552 C 69.0155 19.0286 69.7572 20.0151 71.2053 20.0151 C 72.6534 20.0151 73.3597 19.0286 73.3597 17.0552 C 73.3597 15.1172 72.618 14.1304 71.17 14.1304 C 70.3929 14.1304 69.8632 14.3772 69.5099 14.8706 C 69.1921 15.3638 69.0155 16.1038 69.0155 17.0552 L 69.0155 17.0552 ZM 75.2318 17.0552 C 75.2318 18.4648 74.8787 19.5571 74.1721 20.3323 C 73.4658 21.1074 72.4415 21.4951 71.17 21.4951 C 70.3577 21.4951 69.6512 21.3191 69.0508 20.9666 C 68.4503 20.6143 67.9558 20.0857 67.6379 19.4163 C 67.3201 18.7466 67.1434 17.9714 67.1434 17.0552 C 67.1434 15.6809 67.4967 14.5886 68.2031 13.8132 C 68.9094 13.0381 69.9337 12.6504 71.2053 12.6504 C 72.4415 12.6504 73.4304 13.0381 74.1368 13.8486 C 74.8787 14.6238 75.2318 15.6809 75.2318 17.0552 L 75.2318 17.0552 Z" fill="#a0a1a2"/>
					<path id="st03" d="M 80.7064 12.0476 C 81.0596 12.0476 81.3776 12.0828 81.6248 12.1182 L 81.4481 13.8096 C 81.2009 13.739 80.9183 13.7039 80.6357 13.7039 C 79.894 13.7039 79.3289 13.9507 78.8698 14.4084 C 78.4105 14.8667 78.1986 15.501 78.1986 16.241 L 78.1986 20.7163 L 76.3621 20.7163 L 76.3621 12.2239 L 77.7748 12.2239 L 78.0221 13.739 L 78.1281 13.739 C 78.4105 13.2456 78.7991 12.823 79.2229 12.541 C 79.682 12.2239 80.1766 12.0476 80.7064 12.0476 L 80.7064 12.0476 Z" fill="#a0a1a2"/>
					<path id="st04" d="M 83.6732 15.54 C 83.6732 16.0686 83.8146 16.4915 84.097 16.7732 C 84.3798 17.0552 84.7682 17.1963 85.298 17.1963 C 86.3577 17.1963 86.8875 16.6323 86.8875 15.5046 C 86.8875 14.9409 86.7461 14.5181 86.4989 14.2361 C 86.2517 13.9189 85.8279 13.7781 85.298 13.7781 C 84.7682 13.7781 84.3798 13.9189 84.097 14.2361 C 83.8146 14.5532 83.6732 14.9761 83.6732 15.54 L 83.6732 15.54 ZM 82.8962 22.6582 C 82.8962 23.0457 83.0729 23.3628 83.426 23.5742 C 83.7793 23.7856 84.2737 23.8914 84.9094 23.8914 C 85.8984 23.8914 86.6403 23.7505 87.1346 23.4685 C 87.6292 23.1865 87.8763 22.7991 87.8763 22.3408 C 87.8763 21.9534 87.7351 21.7068 87.4879 21.5657 C 87.2406 21.4248 86.7108 21.3191 86.0045 21.3191 L 84.627 21.3191 C 84.097 21.3191 83.7086 21.4248 83.3907 21.6714 C 83.0375 21.918 82.8962 22.2351 82.8962 22.6582 L 82.8962 22.6582 ZM 89.6071 12.7915 L 89.6071 13.7781 L 88.1589 14.0601 C 88.3002 14.2361 88.4061 14.4475 88.4768 14.7295 C 88.5475 14.9761 88.618 15.2581 88.618 15.5752 C 88.618 16.4561 88.3002 17.1609 87.6998 17.6543 C 87.0994 18.1477 86.2517 18.3943 85.1921 18.3943 C 84.9094 18.3943 84.6622 18.3591 84.4503 18.3237 C 84.0618 18.5706 83.8499 18.8523 83.8499 19.1694 C 83.8499 19.3811 83.9558 19.522 84.1324 19.6277 C 84.309 19.7334 84.6622 19.7686 85.1567 19.7686 L 86.6403 19.7686 C 87.5939 19.7686 88.3002 19.98 88.7947 20.3677 C 89.2892 20.7551 89.5364 21.3542 89.5364 22.0942 C 89.5364 23.0457 89.1478 23.821 88.3356 24.3494 C 87.5232 24.8782 86.3929 25.1248 84.8741 25.1248 C 83.7086 25.1248 82.8256 24.9133 82.1898 24.4905 C 81.5895 24.0676 81.2715 23.5037 81.2715 22.7285 C 81.2715 22.2 81.4481 21.7771 81.766 21.3894 C 82.0839 21.0371 82.5784 20.7905 83.1788 20.6494 C 82.9315 20.5439 82.7196 20.3677 82.5784 20.1563 C 82.4371 19.9094 82.3312 19.698 82.3312 19.4163 C 82.3312 19.0991 82.4371 18.8171 82.6136 18.6057 C 82.7903 18.3943 83.0729 18.1829 83.426 17.9363 C 82.9669 17.76 82.6136 17.4429 82.3312 17.02 C 82.0486 16.5972 81.9073 16.1038 81.9073 15.5046 C 81.9073 14.5886 82.1898 13.8486 82.7903 13.3552 C 83.3907 12.8618 84.2031 12.5801 85.298 12.5801 C 85.5453 12.5801 85.7926 12.5801 86.0751 12.6152 C 86.3577 12.6504 86.5342 12.6858 86.6755 12.7209 L 89.6071 12.7209 L 89.6071 12.7915 Z" fill="#a0a1a2"/>
					<path id="st05" d="M 93.5276 13.9895 C 92.9625 13.9895 92.5033 14.1655 92.1501 14.5532 C 91.7969 14.9058 91.585 15.4695 91.5144 16.1392 L 95.3995 16.1392 C 95.3995 15.4343 95.2229 14.9058 94.905 14.5532 C 94.5519 14.2009 94.0928 13.9895 93.5276 13.9895 L 93.5276 13.9895 ZM 93.8455 21.4951 C 92.5033 21.4951 91.4791 21.1074 90.7373 20.3323 C 89.9955 19.5571 89.6071 18.5 89.6071 17.1257 C 89.6071 15.7163 89.9602 14.6238 90.6667 13.8486 C 91.373 13.0381 92.3268 12.6504 93.5276 12.6504 C 94.6578 12.6504 95.5409 13.0027 96.2119 13.6724 C 96.8829 14.3418 97.2009 15.2932 97.2009 16.4915 L 97.2009 17.478 L 91.4791 17.478 C 91.5144 18.3237 91.7263 18.958 92.1501 19.3811 C 92.574 19.8391 93.1744 20.0503 93.9514 20.0503 C 94.4459 20.0503 94.9404 20.0151 95.3643 19.9094 C 95.7881 19.8037 96.2825 19.6628 96.7771 19.4514 L 96.7771 20.9314 C 96.3179 21.1428 95.894 21.2837 95.4348 21.3894 C 94.9404 21.4248 94.4459 21.4951 93.8455 21.4951 L 93.8455 21.4951 Z" fill="#a0a1a2"/>
				</g>
				<g>
					<path id="st06" d="M 104.053 15.1875 L 108.2208 15.1875 L 108.2208 20.8608 C 107.5497 21.0723 106.8787 21.2485 106.2428 21.3191 C 105.6071 21.4248 104.9359 21.46 104.1942 21.46 C 102.4636 21.46 101.1567 20.9666 100.2384 19.9446 C 99.3201 18.9229 98.861 17.5132 98.861 15.6458 C 98.861 13.8132 99.3907 12.4038 100.415 11.3818 C 101.4746 10.3601 102.9227 9.8313 104.7594 9.8313 C 105.9249 9.8313 107.0552 10.043 108.1149 10.501 L 107.4791 12.0513 C 106.5607 11.6287 105.6423 11.4172 104.724 11.4172 C 103.5232 11.4172 102.5696 11.8047 101.8632 12.5447 C 101.1567 13.2847 100.8036 14.3418 100.8036 15.6458 C 100.8036 17.02 101.1213 18.0771 101.7571 18.7817 C 102.3929 19.4866 103.3113 19.8743 104.4768 19.8743 C 105.0773 19.8743 105.713 19.8037 106.384 19.6628 L 106.384 16.738 L 104.053 16.738 L 104.053 15.1875 L 104.053 15.1875 Z" fill="#a0a1a2"/>
					<path id="st07" d="M 111.2229 17.0552 C 111.2229 19.0286 111.9647 20.0151 113.4128 20.0151 C 114.861 20.0151 115.5674 19.0286 115.5674 17.0552 C 115.5674 15.1172 114.8256 14.1304 113.3776 14.1304 C 112.6005 14.1304 112.0706 14.3772 111.7174 14.8706 C 111.3995 15.3638 111.2229 16.1038 111.2229 17.0552 L 111.2229 17.0552 ZM 117.4746 17.0552 C 117.4746 18.4648 117.1213 19.5571 116.415 20.3323 C 115.7086 21.1074 114.6843 21.4951 113.4128 21.4951 C 112.6005 21.4951 111.894 21.3191 111.2936 20.9666 C 110.6931 20.6143 110.1986 20.0857 109.8807 19.4163 C 109.5629 18.7466 109.3864 17.9714 109.3864 17.0552 C 109.3864 15.6809 109.7395 14.5886 110.4459 13.8132 C 111.1523 13.0381 112.1766 12.6504 113.4481 12.6504 C 114.6843 12.6504 115.6732 13.0381 116.3796 13.8486 C 117.1213 14.6238 117.4746 15.6809 117.4746 17.0552 L 117.4746 17.0552 Z" fill="#a0a1a2"/>
					<path id="st08" d="M 126.1281 21.3191 L 124.2914 21.3191 L 124.2914 16.0686 C 124.2914 15.3989 124.1501 14.9058 123.903 14.5886 C 123.6202 14.2712 123.2318 14.0952 122.6313 14.0952 C 121.8544 14.0952 121.2892 14.3066 120.9359 14.7649 C 120.5828 15.2229 120.4061 15.9629 120.4061 17.0552 L 120.4061 21.3191 L 118.5696 21.3191 L 118.5696 12.7915 L 119.9823 12.7915 L 120.2296 13.9189 L 120.3356 13.9189 C 120.5828 13.4963 120.9713 13.2144 121.4304 12.9675 C 121.8896 12.7561 122.4193 12.6504 123.0198 12.6504 C 125.0685 12.6504 126.0927 13.7075 126.0927 15.7866 L 126.0927 21.3191 L 126.1281 21.3191 Z" fill="#a0a1a2"/>
					<path id="st09" d="M 133.3687 21.3191 L 126.8698 21.3191 L 126.8698 20.1914 L 131.2141 14.1655 L 127.1523 14.1655 L 127.1523 12.7915 L 133.2627 12.7915 L 133.2627 14.0601 L 129.0243 19.9446 L 133.3687 19.9446 L 133.3687 21.3191 L 133.3687 21.3191 Z" fill="#a0a1a2"/>
					<path id="st010" d="M 136.5121 11.7341 L 136.5121 11.5581 C 136.7947 11.2058 137.1125 10.7827 137.4304 10.3601 C 137.7483 9.9019 137.9955 9.5496 138.1721 9.2324 L 140.2914 9.2324 L 140.2914 9.4084 C 140.0088 9.7256 139.6202 10.1133 139.0906 10.6418 C 138.5607 11.1353 138.1016 11.5229 137.7483 11.8047 L 136.5121 11.8047 L 136.5121 11.7341 ZM 137.0773 20.0857 C 137.7483 20.0857 138.2782 19.9094 138.6666 19.522 C 139.0552 19.1694 139.2671 18.6409 139.2671 17.9714 L 139.2671 17.2666 L 138.1721 17.302 C 137.3245 17.3372 136.6887 17.478 136.3002 17.7246 C 135.9117 17.9714 135.6998 18.3591 135.6998 18.8875 C 135.6998 19.2751 135.8058 19.5571 136.053 19.7686 C 136.3002 19.98 136.618 20.0857 137.0773 20.0857 L 137.0773 20.0857 ZM 139.7969 21.3191 L 139.4437 20.1208 L 139.373 20.1208 C 138.9492 20.6494 138.5607 21.002 138.1368 21.178 C 137.713 21.3542 137.1832 21.46 136.5121 21.46 C 135.6644 21.46 135.0287 21.2485 134.5342 20.7905 C 134.0751 20.3323 133.8279 19.698 133.8279 18.8523 C 133.8279 17.9714 134.1456 17.302 134.8168 16.8438 C 135.4879 16.3857 136.4768 16.1392 137.819 16.1038 L 139.3025 16.0686 L 139.3025 15.6104 C 139.3025 15.0818 139.1611 14.6592 138.9139 14.3772 C 138.6666 14.0952 138.2782 13.9543 137.713 13.9543 C 137.2892 13.9543 136.8654 14.0247 136.4415 14.1304 C 136.053 14.2712 135.6644 14.4124 135.276 14.5886 L 134.6755 13.2847 C 135.1346 13.0381 135.6644 12.8618 136.1942 12.7209 C 136.7594 12.5801 137.2538 12.5447 137.7483 12.5447 C 138.8433 12.5447 139.6556 12.7915 140.2207 13.2495 C 140.7859 13.7075 141.0685 14.4829 141.0685 15.4695 L 141.0685 21.2131 L 139.7969 21.2131 L 139.7969 21.3191 Z" fill="#a0a1a2"/>
					<path id="st011" d="M 144.4591 21.3191 L 142.6224 21.3191 L 142.6224 9.3027 L 144.4591 9.3027 L 144.4591 21.3191 L 144.4591 21.3191 Z" fill="#a0a1a2"/>
					<path id="st012" d="M 149.5453 13.9895 C 148.9801 13.9895 148.5209 14.1655 148.1677 14.5532 C 147.8146 14.9058 147.6027 15.4695 147.532 16.1392 L 151.4172 16.1392 C 151.4172 15.4343 151.2406 14.9058 150.9227 14.5532 C 150.5696 14.2009 150.1104 13.9895 149.5453 13.9895 L 149.5453 13.9895 ZM 149.8632 21.4951 C 148.5209 21.4951 147.4967 21.1074 146.755 20.3323 C 146.0133 19.5571 145.6248 18.5 145.6248 17.1257 C 145.6248 15.7163 145.9779 14.6238 146.6843 13.8486 C 147.3907 13.0381 148.3444 12.6504 149.5453 12.6504 C 150.6755 12.6504 151.5585 13.0027 152.2296 13.6724 C 152.9006 14.3418 153.2185 15.2932 153.2185 16.4915 L 153.2185 17.478 L 147.4967 17.478 C 147.532 18.3237 147.7439 18.958 148.1677 19.3811 C 148.5917 19.8391 149.1921 20.0503 149.9691 20.0503 C 150.4636 20.0503 150.9581 20.0151 151.3818 19.9094 C 151.8058 19.8037 152.3002 19.6628 152.7947 19.4514 L 152.7947 20.9314 C 152.3356 21.1428 151.9117 21.2837 151.4525 21.3894 C 150.9581 21.4248 150.4636 21.4951 149.8632 21.4951 L 149.8632 21.4951 Z" fill="#a0a1a2"/>
					<path id="st013" d="M 160 21.3191 L 153.5011 21.3191 L 153.5011 20.1914 L 157.8455 14.1655 L 153.7836 14.1655 L 153.7836 12.7915 L 159.894 12.7915 L 159.894 14.0601 L 155.6556 19.9446 L 160 19.9446 L 160 21.3191 L 160 21.3191 Z" fill="#a0a1a2"/>
				</g>
			</g>
			<g>
				<path id="st014" d="M 63.0463 32.5952 L 62.0221 32.5952 L 62.0221 28.3667 L 63.0463 28.3667 L 63.0463 32.5952 L 63.0463 32.5952 ZM 61.9867 27.239 C 61.9867 27.0627 62.0221 26.957 62.1281 26.8865 C 62.234 26.8162 62.3752 26.7456 62.5519 26.7456 C 62.7285 26.7456 62.8698 26.781 62.9757 26.8865 C 63.0817 26.957 63.1171 27.0981 63.1171 27.239 C 63.1171 27.3801 63.0817 27.521 62.9757 27.5916 C 62.8698 27.6619 62.7285 27.7324 62.5519 27.7324 C 62.3752 27.7324 62.234 27.697 62.1281 27.5916 C 62.0221 27.521 61.9867 27.4153 61.9867 27.239 L 61.9867 27.239 Z" fill="#a0a1a2"/>
				<path id="st015" d="M 68.8389 32.5952 L 67.8146 32.5952 L 67.8146 29.9875 C 67.8146 29.6704 67.7439 29.4238 67.6027 29.2476 C 67.4613 29.0713 67.2141 29.001 66.8962 29.001 C 66.4724 29.001 66.1545 29.1067 65.9426 29.3533 C 65.7307 29.5647 65.6248 29.9524 65.6248 30.481 L 65.6248 32.5952 L 64.6005 32.5952 L 64.6005 28.3667 L 65.4128 28.3667 L 65.5541 28.9304 L 65.5895 28.9304 C 65.7307 28.719 65.9426 28.5781 66.1898 28.4724 C 66.4724 28.3667 66.755 28.2961 67.0729 28.2961 C 68.2384 28.2961 68.8036 28.8247 68.8036 29.8467 L 68.8036 32.5952 L 68.8389 32.5952 Z" fill="#a0a1a2"/>
				<path id="st016" d="M 71.0994 29.741 C 71.0994 30.0229 71.17 30.199 71.3466 30.3398 C 71.4879 30.481 71.7351 30.5513 72.0177 30.5513 C 72.618 30.5513 72.9006 30.2695 72.9006 29.7058 C 72.9006 29.4238 72.83 29.2124 72.6887 29.0713 C 72.5475 28.9304 72.3356 28.8599 72.0177 28.8599 C 71.7351 28.8599 71.4879 28.9304 71.3466 29.0713 C 71.17 29.2476 71.0994 29.459 71.0994 29.741 L 71.0994 29.741 ZM 70.6403 33.2295 C 70.6403 33.4058 70.7461 33.5818 70.9227 33.6875 C 71.1346 33.7932 71.4172 33.8284 71.7704 33.8284 C 72.3356 33.8284 72.7594 33.7581 73.0066 33.6172 C 73.2892 33.4761 73.4304 33.3 73.4304 33.0532 C 73.4304 32.877 73.3597 32.7361 73.2185 32.6655 C 73.0773 32.5952 72.7947 32.5598 72.3708 32.5598 L 71.5939 32.5598 C 71.3113 32.5598 71.0641 32.6304 70.8875 32.7361 C 70.7461 32.877 70.6403 33.0532 70.6403 33.2295 L 70.6403 33.2295 ZM 74.4194 28.3667 L 74.4194 28.8599 L 73.6071 29.001 C 73.6777 29.1067 73.7483 29.2124 73.7836 29.3181 C 73.819 29.459 73.8542 29.6001 73.8542 29.741 C 73.8542 30.1638 73.6777 30.5161 73.3245 30.7629 C 72.9713 31.0095 72.5121 31.1504 71.9117 31.1504 C 71.7704 31.1504 71.6292 31.1504 71.4879 31.1152 C 71.276 31.2209 71.17 31.3618 71.17 31.5381 C 71.17 31.6438 71.2053 31.7141 71.3113 31.7495 C 71.4172 31.7847 71.5939 31.8201 71.8763 31.8201 L 72.724 31.8201 C 73.2539 31.8201 73.6423 31.9258 73.9249 32.1021 C 74.2074 32.2781 74.3488 32.5952 74.3488 32.9475 C 74.3488 33.4409 74.1368 33.7932 73.6777 34.04 C 73.2185 34.2866 72.5828 34.4277 71.7351 34.4277 C 71.0641 34.4277 70.5696 34.322 70.2164 34.1104 C 69.8632 33.8989 69.6865 33.6172 69.6865 33.2295 C 69.6865 32.9829 69.7925 32.7361 69.9691 32.5598 C 70.1456 32.3838 70.4283 32.2429 70.7461 32.2075 C 70.6049 32.1724 70.4989 32.0667 70.3929 31.9609 C 70.287 31.8552 70.2517 31.7141 70.2517 31.6084 C 70.2517 31.4675 70.287 31.3267 70.3929 31.2209 C 70.4989 31.1152 70.6403 31.0095 70.8522 30.9038 C 70.6049 30.7981 70.3929 30.657 70.2517 30.4456 C 70.1104 30.2341 70.0045 29.9875 70.0045 29.7058 C 70.0045 29.2476 70.181 28.8953 70.4989 28.6487 C 70.8168 28.4019 71.3113 28.261 71.9117 28.261 C 72.053 28.261 72.1942 28.261 72.3356 28.2961 C 72.4768 28.2961 72.5828 28.3313 72.6887 28.3313 L 74.4194 28.3313 L 74.4194 28.3667 Z" fill="#a0a1a2"/>
				<path id="st017" d="M 77.3157 28.9656 C 76.9978 28.9656 76.7152 29.0713 76.5387 29.2476 C 76.3268 29.4238 76.2207 29.7058 76.1854 30.0229 L 78.3752 30.0229 C 78.3752 29.6704 78.2693 29.4238 78.0927 29.2476 C 77.9161 29.0713 77.6335 28.9656 77.3157 28.9656 L 77.3157 28.9656 ZM 77.5276 32.6655 C 76.7859 32.6655 76.1854 32.4895 75.7616 32.1021 C 75.3378 31.7141 75.1259 31.1858 75.1259 30.5161 C 75.1259 29.8115 75.3378 29.2827 75.7263 28.8953 C 76.1149 28.5076 76.6447 28.2961 77.351 28.2961 C 77.9867 28.2961 78.4812 28.4724 78.8698 28.7896 C 79.2229 29.1418 79.4348 29.6001 79.4348 30.199 L 79.4348 30.6924 L 76.2207 30.6924 C 76.2207 31.1152 76.3621 31.4324 76.6093 31.6438 C 76.8566 31.8552 77.1744 31.9609 77.5983 31.9609 C 77.8807 31.9609 78.1633 31.9258 78.4105 31.8904 C 78.6578 31.8552 78.9052 31.7495 79.1876 31.6438 L 79.1876 32.3838 C 78.9404 32.4895 78.6931 32.5598 78.4459 32.5952 C 78.1986 32.6304 77.8455 32.6655 77.5276 32.6655 L 77.5276 32.6655 Z" fill="#a0a1a2"/>
				<path id="st018" d="M 84.8741 32.5952 L 83.8499 32.5952 L 83.8499 29.9875 C 83.8499 29.6704 83.7793 29.4238 83.6379 29.2476 C 83.4967 29.0713 83.2494 29.001 82.9315 29.001 C 82.5077 29.001 82.1898 29.1067 81.9779 29.3533 C 81.766 29.5647 81.66 29.9524 81.66 30.481 L 81.66 32.5952 L 80.6357 32.5952 L 80.6357 28.3667 L 81.4481 28.3667 L 81.5895 28.9304 L 81.6248 28.9304 C 81.766 28.719 81.9779 28.5781 82.2252 28.4724 C 82.5077 28.3667 82.7903 28.2961 83.1082 28.2961 C 84.2737 28.2961 84.8389 28.8247 84.8389 29.8467 L 84.8389 32.5952 L 84.8741 32.5952 Z" fill="#a0a1a2"/>
				<path id="st019" d="M 87.4172 32.5952 L 86.3929 32.5952 L 86.3929 28.3667 L 87.4172 28.3667 L 87.4172 32.5952 L 87.4172 32.5952 ZM 86.3223 27.239 C 86.3223 27.0627 86.3577 26.957 86.4636 26.8865 C 86.5695 26.8162 86.7108 26.7456 86.8875 26.7456 C 87.0641 26.7456 87.2053 26.781 87.3113 26.8865 C 87.4172 26.957 87.4525 27.0981 87.4525 27.239 C 87.4525 27.3801 87.4172 27.521 87.3113 27.5916 C 87.2053 27.6619 87.0641 27.7324 86.8875 27.7324 C 86.7108 27.7324 86.5695 27.697 86.4636 27.5916 C 86.3929 27.521 86.3223 27.4153 86.3223 27.239 L 86.3223 27.239 Z" fill="#a0a1a2"/>
				<path id="st020" d="M 90.8787 28.9656 C 90.5607 28.9656 90.2782 29.0713 90.1016 29.2476 C 89.8896 29.4238 89.7836 29.7058 89.7483 30.0229 L 91.9382 30.0229 C 91.9382 29.6704 91.8323 29.4238 91.6556 29.2476 C 91.4437 29.0713 91.1964 28.9656 90.8787 28.9656 L 90.8787 28.9656 ZM 91.0552 32.6655 C 90.3135 32.6655 89.713 32.4895 89.2892 32.1021 C 88.8654 31.7141 88.6534 31.1858 88.6534 30.5161 C 88.6534 29.8115 88.8654 29.2827 89.2539 28.8953 C 89.6423 28.5076 90.1721 28.2961 90.8787 28.2961 C 91.5144 28.2961 92.0088 28.4724 92.3973 28.7896 C 92.7506 29.1418 92.9625 29.6001 92.9625 30.199 L 92.9625 30.6924 L 89.713 30.6924 C 89.713 31.1152 89.8544 31.4324 90.1016 31.6438 C 90.3488 31.8552 90.6667 31.9609 91.0906 31.9609 C 91.373 31.9609 91.6556 31.9258 91.903 31.8904 C 92.1501 31.8552 92.3973 31.7495 92.6799 31.6438 L 92.6799 32.3838 C 92.4327 32.4895 92.1854 32.5598 91.9382 32.5952 C 91.691 32.6304 91.4083 32.6655 91.0552 32.6655 L 91.0552 32.6655 Z" fill="#a0a1a2"/>
				<path id="st021" d="M 96.6357 28.2961 C 96.8477 28.2961 97.0243 28.2961 97.1302 28.3313 L 97.0243 29.177 C 96.8829 29.1418 96.7418 29.1418 96.5652 29.1418 C 96.1414 29.1418 95.8234 29.2476 95.5762 29.4941 C 95.329 29.741 95.1876 30.0229 95.1876 30.4104 L 95.1876 32.6304 L 94.1633 32.6304 L 94.1633 28.4019 L 94.9757 28.4019 L 95.1169 29.1418 L 95.1523 29.1418 C 95.329 28.8953 95.5055 28.6838 95.7881 28.543 C 96.0706 28.3667 96.3533 28.2961 96.6357 28.2961 L 96.6357 28.2961 Z" fill="#a0a1a2"/>
				<path id="st022" d="M 99.1434 32.5952 L 98.1193 32.5952 L 98.1193 28.3667 L 99.1434 28.3667 L 99.1434 32.5952 L 99.1434 32.5952 ZM 98.0839 27.8381 L 98.0839 27.7324 C 98.2605 27.5562 98.4371 27.3447 98.5784 27.1333 C 98.755 26.9219 98.8962 26.7104 99.0022 26.5696 L 100.2031 26.5696 L 100.2031 26.6399 C 100.0618 26.781 99.8146 26.9922 99.532 27.239 C 99.2141 27.4858 98.9669 27.6619 98.755 27.8027 L 98.0839 27.8027 L 98.0839 27.8381 Z" fill="#a0a1a2"/>
				<path id="st023" d="M 102.181 31.9609 C 102.5696 31.9609 102.8522 31.8552 103.0641 31.679 C 103.276 31.5027 103.4172 31.2561 103.4172 30.9038 L 103.4172 30.5513 L 102.7815 30.5867 C 102.287 30.5867 101.9337 30.657 101.7218 30.7981 C 101.5099 30.939 101.4039 31.1152 101.4039 31.3618 C 101.4039 31.5381 101.4746 31.679 101.5806 31.7847 C 101.7571 31.9258 101.9337 31.9609 102.181 31.9609 L 102.181 31.9609 ZM 103.6998 32.5952 L 103.4879 31.9961 L 103.4879 31.9961 C 103.2406 32.2429 103.0287 32.4189 102.7815 32.5247 C 102.5342 32.6304 102.2517 32.6655 101.8632 32.6655 C 101.4039 32.6655 101.0155 32.5598 100.7682 32.3132 C 100.4856 32.1021 100.3798 31.7847 100.3798 31.3618 C 100.3798 30.939 100.5563 30.5867 100.9447 30.3752 C 101.298 30.1638 101.8632 30.0229 102.6403 30.0229 L 103.4879 29.9875 L 103.4879 29.7761 C 103.4879 29.4941 103.4172 29.3181 103.276 29.177 C 103.1346 29.0361 102.9227 28.9656 102.6049 28.9656 C 102.3575 28.9656 102.1104 29.001 101.8984 29.0713 C 101.6865 29.1418 101.4393 29.2124 101.2627 29.2827 L 100.9447 28.6487 C 101.1921 28.543 101.5099 28.437 101.7925 28.3667 C 102.1104 28.2961 102.3929 28.261 102.6755 28.261 C 103.276 28.261 103.7351 28.3667 104.053 28.6133 C 104.3708 28.8599 104.5121 29.2124 104.5121 29.7058 L 104.5121 32.5598 L 103.6998 32.5598 L 103.6998 32.5952 Z" fill="#a0a1a2"/>
			</g>
		</g>
		<g>
			<path id="st024" d="M 25.819 19.8706 C 25.819 20.8572 26.5959 21.6323 27.585 21.6323 C 28.574 21.6323 29.351 20.822 29.351 19.8706 C 29.351 18.8838 28.574 18.1086 27.585 18.1086 C 26.6313 18.1086 25.819 18.8838 25.819 19.8706 L 25.819 19.8706 Z" fill="#a0a1a2"/>
			<path id="st025" d="M 53.1567 0 L 27.6204 0 L 2.0486 0 C 0.9183 0 0 0.9163 0 2.0439 L 0 15.54 C 0 16.0686 0.4591 16.5266 0.989 16.5266 C 1.5188 16.5266 1.9779 16.0686 1.9779 15.54 L 1.9779 2.0439 C 1.9779 2.0085 2.0133 1.9734 2.0486 1.9734 L 27.6204 1.9734 L 53.192 1.9734 C 53.2274 1.9734 53.2627 2.0085 53.2627 2.0439 L 53.2627 15.54 C 53.2627 16.0686 53.7218 16.5266 54.2517 16.5266 C 54.7815 16.5266 55.2406 16.0686 55.2406 15.54 L 55.2406 2.0439 C 55.2053 0.9163 54.287 0 53.1567 0 L 53.1567 0 Z" fill="#a0a1a2"/>
			<path id="st026" d="M 31.3643 2.9561 L 27.6204 2.9561 L 23.8763 2.9561 C 22.7461 2.9561 21.8279 3.8723 21.8279 5 L 21.8279 36.2915 C 21.8279 36.3267 21.7926 36.3618 21.7571 36.3618 L 5.7572 36.3618 C 5.7218 36.3618 5.6865 36.3267 5.6865 36.2915 L 5.6865 23.4648 C 5.6865 23.4294 5.7218 23.3943 5.7572 23.3943 L 12.1149 23.3943 L 12.1501 23.3943 C 12.6799 23.3591 13.0685 22.9363 13.0685 22.4077 C 13.0685 21.8792 12.6799 21.4561 12.1501 21.4209 C 12.1149 21.4209 12.1149 21.4209 12.0795 21.4209 L 5.1567 21.4209 C 4.2031 21.4209 3.7086 21.9143 3.7086 22.8657 L 3.7086 36.8552 C 3.7086 37.8066 4.2031 38.3 5.1567 38.3 L 22.3575 38.3 C 23.3113 38.3 23.8058 37.8066 23.8058 36.8552 L 23.8058 5 C 23.8058 4.9648 23.8411 4.9297 23.8763 4.9297 L 27.6204 4.9297 L 31.3643 4.9297 C 31.3995 4.9297 31.4348 4.9648 31.4348 5 L 31.4348 36.8552 C 31.4348 37.8066 31.9294 38.3 32.8829 38.3 L 50.0839 38.3 C 51.0375 38.3 51.532 37.8066 51.532 36.8552 L 51.532 22.8657 C 51.532 21.9143 51.0375 21.4209 50.0839 21.4209 L 43.1259 21.4209 C 43.0906 21.4209 43.0906 21.4209 43.0553 21.4209 C 42.5254 21.4561 42.1368 21.8792 42.1368 22.4077 C 42.1368 22.9363 42.5254 23.3591 43.0553 23.3943 L 43.0906 23.3943 L 49.4481 23.3943 C 49.4834 23.3943 49.5188 23.4294 49.5188 23.4648 L 49.5188 36.2915 C 49.5188 36.3267 49.4834 36.3618 49.4481 36.3618 L 33.4834 36.3618 C 33.4481 36.3618 33.4128 36.3267 33.4128 36.2915 L 33.4128 5 C 33.4128 3.8723 32.4945 2.9561 31.3643 2.9561 L 31.3643 2.9561 Z" fill="#a0a1a2"/>
			<path id="st027" d="M 53.1567 17.7209 L 43.0906 17.7209 C 42.5607 17.7209 42.1016 18.179 42.1016 18.7078 C 42.1016 19.2361 42.5254 19.6943 43.0906 19.6943 L 52.309 19.6943 C 52.9448 19.6943 53.2274 19.8352 53.2274 20.6106 L 53.2274 39.0752 C 53.2274 39.7095 53.0861 39.9915 52.309 39.9915 L 27.585 39.9915 L 2.861 39.9915 C 2.0839 39.9915 1.9426 39.7095 1.9426 39.0752 L 1.9426 20.6106 C 1.9426 19.8 2.2252 19.6943 2.861 19.6943 L 12.0795 19.6943 C 12.6093 19.6943 13.0331 19.2361 13.0331 18.7078 C 13.0331 18.179 12.6093 17.7209 12.0442 17.7209 L 2.0486 17.7209 C 0.9183 17.7209 0 18.6372 0 19.7649 L 0 39.9561 C 0 41.0132 0.7771 41.8943 1.8367 42 C 1.9073 42 1.9779 42 2.0486 42 L 27.6204 42 L 53.192 42 C 53.2627 42 53.3333 42 53.4041 42 C 54.4636 41.8943 55.2406 41.0132 55.2406 39.9561 L 55.2406 19.7649 C 55.2053 18.6372 54.287 17.7209 53.1567 17.7209 L 53.1567 17.7209 Z" fill="#a0a1a2"/>
		</g>
	</g>
</svg>