<?xml version="1.0" standalone="no"?>
<!-- Generator: Adobe Fireworks 10, Export SVG Extension by Aaron Beall (http://fireworks.abeall.com) . Version: 0.6.1  -->
<!DOCTYPE svg PUBLIC "-//W3C//DTD SVG 1.1//EN" "http://www.w3.org/Graphics/SVG/1.1/DTD/svg11.dtd">
<svg id="Untitled-P%E1gina%201" viewBox="0 0 22 29" style="background-color:#ffffff00" version="1.1"
	xmlns="http://www.w3.org/2000/svg" xmlns:xlink="http://www.w3.org/1999/xlink" xml:space="preserve"
	x="0px" y="0px" width="22px" height="29px"
>
	<path id="2889731" d="M 11.0775 0.9619 C 11.141 1.0396 11.1974 1.1313 11.2678 1.2019 C 14.7153 4.6519 18.1558 8.1016 21.6033 11.5439 C 21.6809 11.6216 21.7584 11.6851 21.8289 11.7485 C 21.1803 12.3835 20.5529 12.9973 19.9395 13.5972 C 17.4861 11.1421 14.9833 8.6377 12.4805 6.1333 C 12.4524 6.1472 12.4241 6.1614 12.396 6.1755 C 12.3889 6.2461 12.3748 6.3164 12.3748 6.3872 C 12.3748 13.5476 12.3748 20.708 12.3748 27.8616 C 12.3748 27.925 12.3889 27.9814 12.3889 28.0449 C 11.4724 28.0449 10.5559 28.0449 9.6394 28.0449 C 9.6464 27.9392 9.6534 6.2883 9.6534 6.1472 C 7.1224 8.6799 4.6196 11.1843 2.1381 13.6675 C 1.4824 13.0115 0.8621 12.3906 0.1711 11.6992 C 0.2275 11.6641 0.3333 11.6289 0.4108 11.5581 C 3.8652 8.1084 7.3198 4.6519 10.7673 1.1948 C 10.8379 1.1245 10.8943 1.0327 10.9578 0.9551 C 11.0071 0.9619 11.0422 0.9619 11.0775 0.9619 L 11.0775 0.9619 Z" fill="#ffffff"/>
</svg>