<?xml version="1.0" standalone="no"?>
<!-- Generator: Adobe Fireworks 10, Export SVG Extension by Aaron Beall (http://fireworks.abeall.com) . Version: 0.6.1  -->
<!DOCTYPE svg PUBLIC "-//W3C//DTD SVG 1.1//EN" "http://www.w3.org/Graphics/SVG/1.1/DTD/svg11.dtd">
<svg id="Untitled-P%E1gina%201" viewBox="0 0 365 365" style="background-color:#ffffff00" version="1.1"
	xmlns="http://www.w3.org/2000/svg" xmlns:xlink="http://www.w3.org/1999/xlink" xml:space="preserve"
	x="0px" y="0px" width="365px" height="365px"
>
	<g id="Capa%201">
		<path id="1828774" d="M 356.3203 295.9883 M 243.1875 182.8594 L 356.3203 69.7266 C 368.8203 57.2266 368.8203 36.9609 356.3203 24.4805 L 341.2383 9.3984 C 328.7344 -3.1055 308.4688 -3.1055 295.9883 9.3984 L 182.8594 122.5273 L 69.7266 9.375 C 57.2266 -3.125 36.9609 -3.125 24.4805 9.375 L 9.375 24.457 C -3.125 36.9609 -3.125 57.2266 9.375 69.707 L 122.5273 182.8594 L 9.3984 295.9883 C -3.1055 308.4922 -3.1055 328.7578 9.3984 341.2383 L 24.4805 356.3203 C 36.9805 368.8203 57.2461 368.8203 69.7266 356.3203 L 182.8594 243.1875 L 295.9883 356.3203 C 308.4922 368.8203 328.7578 368.8203 341.2383 356.3203 L 356.3203 341.2383 C 368.8203 328.7344 368.8203 308.4688 356.3203 295.9883 L 243.1875 182.8594 Z" fill="#ffffff"/>
	</g>
</svg>