<?xml version="1.0" standalone="no"?>
<!-- Generator: Adobe Fireworks 10, Export SVG Extension by Aaron Beall (http://fireworks.abeall.com) . Version: 0.6.1  -->
<!DOCTYPE svg PUBLIC "-//W3C//DTD SVG 1.1//EN" "http://www.w3.org/Graphics/SVG/1.1/DTD/svg11.dtd">
<svg id="Untitled-P%E1gina%201" viewBox="0 0 448 448" style="background-color:#ffffff00" version="1.1"
	xmlns="http://www.w3.org/2000/svg" xmlns:xlink="http://www.w3.org/1999/xlink" xml:space="preserve"
	x="0px" y="0px" width="448px" height="448px"
>
	<g id="Capa%201">
		<path id="add" d="M 408 184 M 408 184 L 272 184 C 267.582 184 264 180.418 264 176 L 264 40 C 264 17.9102 246.0898 0 224 0 C 201.9102 0 184 17.9102 184 40 L 184 176 C 184 180.418 180.418 184 176 184 L 40 184 C 17.9102 184 0 201.9102 0 224 C 0 246.0898 17.9102 264 40 264 L 176 264 C 180.418 264 184 267.582 184 272 L 184 408 C 184 430.0898 201.9102 448 224 448 C 246.0898 448 264 430.0898 264 408 L 264 272 C 264 267.582 267.582 264 272 264 L 408 264 C 430.0898 264 448 246.0898 448 224 C 448 201.9102 430.0898 184 408 184 L 408 184 Z" fill="#ffffff"/>
	</g>
</svg>