<?xml version="1.0" standalone="no"?>
<!-- Generator: Adobe Fireworks 10, Export SVG Extension by Aaron Beall (http://fireworks.abeall.com) . Version: 0.6.1  -->
<!DOCTYPE svg PUBLIC "-//W3C//DTD SVG 1.1//EN" "http://www.w3.org/Graphics/SVG/1.1/DTD/svg11.dtd">
<svg id="Untitled-P%E1gina%201" viewBox="0 0 384 384" style="background-color:#ffffff00" version="1.1"
	xmlns="http://www.w3.org/2000/svg" xmlns:xlink="http://www.w3.org/1999/xlink" xml:space="preserve"
	x="0px" y="0px" width="384px" height="384px"
>
	<g id="Capa%201">
		<g id="565492">
			<path d="M 116.587 189.44 L 146.774 159.253 L 192 204.48 L 237.227 159.253 L 267.414 189.44 L 222.187 234.667 L 267.414 279.894 L 237.227 310.081 L 192 264.853 L 146.773 310.08 L 116.586 279.893 L 161.813 234.666 L 116.587 189.44 L 116.587 189.44 ZM 64 341.333 C 64 364.8 83.2 384 106.667 384 L 277.334 384 C 300.8 384 320 364.8 320 341.333 L 320 85.333 L 64 85.333 L 64 341.333 L 64 341.333 Z" fill="#ffffff"/>
			<path d="M 266.667 21.333 L 245.333 0 L 138.667 0 L 117.333 21.333 L 42.667 21.333 L 42.667 64 L 341.333 64 L 341.333 21.333 L 266.667 21.333 Z" fill="#ffffff"/>
		</g>
	</g>
</svg>