<?xml version="1.0" standalone="no"?>
<!-- Generator: Adobe Fireworks 10, Export SVG Extension by Aaron Beall (http://fireworks.abeall.com) . Version: 0.6.1  -->
<!DOCTYPE svg PUBLIC "-//W3C//DTD SVG 1.1//EN" "http://www.w3.org/Graphics/SVG/1.1/DTD/svg11.dtd">
<svg id="Untitled-P%E1gina%201" viewBox="0 0 492 492" style="background-color:#ffffff00" version="1.1"
	xmlns="http://www.w3.org/2000/svg" xmlns:xlink="http://www.w3.org/1999/xlink" xml:space="preserve"
	x="0px" y="0px" width="492px" height="492px"
>
	<g id="Capa%201">
		<path id="back" d="M 464.344 207.418 L 465.112 207.586 L 135.888 207.586 L 239.384 103.862 C 244.452 98.798 247.232 91.938 247.232 84.738 C 247.232 77.538 244.452 70.726 239.384 65.65 L 223.28 49.538 C 218.216 44.474 211.468 41.674 204.272 41.674 C 197.072 41.674 190.32 44.454 185.256 49.518 L 7.844 226.914 C 2.76 231.998 -0.02 238.77 0 245.974 C -0.02 253.218 2.76 259.994 7.844 265.07 L 185.256 442.482 C 190.32 447.542 197.068 450.326 204.272 450.326 C 211.468 450.326 218.216 447.538 223.28 442.482 L 239.384 426.37 C 244.452 421.314 247.232 414.562 247.232 407.362 C 247.232 400.166 244.452 393.77 239.384 388.71 L 134.72 284.406 L 464.712 284.406 C 479.54 284.406 492 271.626 492 256.806 L 492 234.018 C 492 219.198 479.172 207.418 464.344 207.418 L 464.344 207.418 Z" fill="#ffffff"/>
	</g>
</svg>