<?xml version="1.0" standalone="no"?>
<!-- Generator: Adobe Fireworks 10, Export SVG Extension by Aaron Beall (http://fireworks.abeall.com) . Version: 0.6.1  -->
<!DOCTYPE svg PUBLIC "-//W3C//DTD SVG 1.1//EN" "http://www.w3.org/Graphics/SVG/1.1/DTD/svg11.dtd">
<svg id="Untitled-P%E1gina%201" viewBox="0 0 469 469" style="background-color:#ffffff00" version="1.1"
	xmlns="http://www.w3.org/2000/svg" xmlns:xlink="http://www.w3.org/1999/xlink" xml:space="preserve"
	x="0px" y="0px" width="469px" height="469px"
>
	<g id="Capa%201">
		<g id="483923">
			<path d="M 347.878 151.357 C 343.878 147.354 336.795 147.354 332.795 151.357 L 129.909 354.414 C 127.482 356.843 126.378 360.284 126.919 363.672 C 127.471 367.06 129.617 369.979 132.679 371.512 L 149.335 379.852 L 149.335 407.901 L 98.304 422.503 L 46.794 370.949 L 61.384 319.874 L 89.409 319.874 L 97.742 336.544 C 99.273 339.609 102.19 341.757 105.575 342.309 C 106.148 342.403 106.721 342.444 107.283 342.444 C 110.085 342.444 112.814 341.339 114.825 339.316 L 317.711 136.26 C 319.711 134.258 320.836 131.548 320.836 128.712 C 320.836 125.876 319.711 123.166 317.711 121.164 L 278.482 81.901 C 276.482 79.899 273.774 78.773 270.94 78.773 L 270.919 78.773 C 268.075 78.783 265.356 79.92 263.367 81.932 L 45.763 301.682 C 45.658 301.789 45.663 301.952 45.562 302.061 C 44.467 303.244 43.553 304.61 43.075 306.269 L 24.554 371.126 L 0.409 455.73 C -0.654 459.452 0.388 463.466 3.128 466.208 C 5.159 468.241 7.878 469.336 10.67 469.336 C 11.649 469.336 12.628 469.2 13.597 468.929 L 98.128 444.763 L 162.93 426.226 C 163.125 426.17 163.259 426.023 163.45 425.956 C 164.123 425.724 164.712 425.346 165.331 424.98 C 165.939 424.619 166.547 424.298 167.061 423.834 C 167.199 423.712 167.38 423.667 167.513 423.536 L 387.076 205.747 C 389.086 203.756 390.222 201.035 390.232 198.189 C 390.242 195.353 389.117 192.632 387.107 190.62 L 347.878 151.357 L 347.878 151.357 Z" fill="#ffffff"/>
			<path d="M 456.836 76.168 L 392.836 12.114 C 376.711 -4.025 348.659 -4.056 332.471 12.145 L 293.398 51.606 C 289.263 55.787 289.273 62.511 293.429 66.671 L 402.325 175.659 C 404.408 177.744 407.138 178.787 409.867 178.787 C 412.586 178.787 415.294 177.755 417.377 175.691 L 456.835 136.554 C 464.898 128.485 469.335 117.767 469.335 106.362 C 469.335 94.957 464.899 84.237 456.836 76.168 L 456.836 76.168 Z" fill="#ffffff"/>
		</g>
	</g>
</svg>