<?xml version="1.0" standalone="no"?>
<!-- Generator: Adobe Fireworks 10, Export SVG Extension by Aaron Beall (http://fireworks.abeall.com) . Version: 0.6.1  -->
<!DOCTYPE svg PUBLIC "-//W3C//DTD SVG 1.1//EN" "http://www.w3.org/Graphics/SVG/1.1/DTD/svg11.dtd">
<svg id="Untitled-P%E1gina%201" viewBox="0 0 384 384" style="background-color:#ffffff00" version="1.1"
	xmlns="http://www.w3.org/2000/svg" xmlns:xlink="http://www.w3.org/1999/xlink" xml:space="preserve"
	x="0px" y="0px" width="384px" height="384px"
>
	<g id="Capa%201">
		<g id="565503">
			<path d="M 341.333 0 L 42.667 0 C 19.093 0 0 19.093 0 42.667 L 0 128 L 42.667 128 L 42.667 42.667 L 341.334 42.667 L 341.334 341.334 L 42.667 341.334 L 42.667 256 L 0 256 L 0 341.333 C 0 364.907 19.093 384 42.667 384 L 341.334 384 C 364.907 384 384 364.907 384 341.333 L 384 42.667 C 384 19.093 364.907 0 341.333 0 L 341.333 0 Z" fill="#ffffff"/>
			<path d="M 151.147 268.48 L 181.333 298.667 L 288 192 L 181.333 85.333 L 151.147 115.52 L 206.293 170.667 L 0 170.667 L 0 213.333 L 206.293 213.333 L 151.147 268.48 Z" fill="#ffffff"/>
		</g>
	</g>
</svg>