<?xml version="1.0" encoding="utf-8"?>
<!-- Generator: Adobe Illustrator 16.0.0, SVG Export Plug-In . SVG Version: 6.00 Build 0)  -->
<!DOCTYPE svg PUBLIC "-//W3C//DTD SVG 1.1//EN" "http://www.w3.org/Graphics/SVG/1.1/DTD/svg11.dtd">
<svg version="1.1" id="Capa_1" xmlns="http://www.w3.org/2000/svg" xmlns:xlink="http://www.w3.org/1999/xlink" x="0px" y="0px"
	 width="64px" height="49.997px" viewBox="0 0 64 49.997" enable-background="new 0 0 64 49.997" xml:space="preserve">
<path fill-rule="evenodd" clip-rule="evenodd" fill="#333333" d="M34.23,20.086v9.87c1.19,0.3,2.38,0.3,3.57,0.3
	c-1.48,2.09-3.57,4.19-5.65,6.28c-2.08-1.8-4.17-4.19-5.95-6.28c1.19,0,2.38,0,3.57-0.3v-9.87H34.23z M35.72,18.586v10.17h4.76
	c0,0,0.3-0.3,0.3,0.6c0,0.6-8.04,9.27-8.63,9.27c-0.89,0-5.95-5.68-8.93-8.97v-0.9h5.06v-10.17H35.72z M44.95,17.987
	c0,0.3,0.3,0.9,0,1.5h-0.89c-0.3-0.3-0.6-0.3-0.6-0.9c0-0.9,0.3-0.3,0.3-0.6H44.95z M41.38,15.296c0,0-0.3,0.3-0.3,0.6
	c-6.25-2.69-5.06-2.39-9.23-2.39c-8.93,0-14.88,6.88-14.88,14.95c0,8.98,6.84,15.26,15.18,15.26c8.63,0,14.88-7.18,14.88-15.26
	c0-0.6-0.3-3.59-0.89-6.28h0.89c1.19,2.39,1.19,4.49,1.19,6.28c0,9.87-7.44,16.45-16.07,16.45c-9.82,0-16.37-7.47-16.37-16.45
	c0-9.27,7.14-16.45,16.07-16.45C34.23,12.006,39.59,12.907,41.38,15.296z M16.67,3.927c0,0.3,0,0.6-0.89,0.9c0-0.3-0.3-0.9,0-1.19
	C16.07,3.637,16.37,3.637,16.67,3.927z M11.91,4.227c-0.3,0.3-0.6,0.6-1.19,0.6c0-0.3-0.3-0.6,0-1.19h0.89
	C11.61,3.637,11.61,3.927,11.91,4.227z M6.85,3.927c0,0.6-0.3,0.6-0.3,0.9c-0.3,0-0.6,0-0.89-0.3l0.29-0.89
	C6.25,3.637,6.55,3.637,6.85,3.927z M60.73,0.046c0.59-0.3,3.27,0.89,3.27,2.39v5.98H4.47l-0.6-0.6c0,0,0.3-0.3,0.3-0.59h58.04
	c0.6-0.6,0.6-1.8,0.6-2.4c0-0.9-0.3-3.59-1.79-3.59H2.68c-0.6,0.3-1.49,0.9-1.49,1.8v43.67c0.3,0.9,0.6,2.09,1.49,2.09h58.34
	c0.9-0.3,1.49-1.19,1.79-1.79v-35.9H64v36.2c-0.6,1.19-1.79,2.69-2.68,2.69H2.38c-0.89-0.6-2.38-1.79-2.38-2.39V2.437
	c0.3-1.5,1.79-2.39,2.98-2.39H60.73z"/>
</svg>
